<svg width="33" height="30" viewBox="0 0 33 30" fill="none" xmlns="http://www.w3.org/2000/svg">
<path d="M1.79007 29.0304C1.50426 29.0304 1.24444 28.9592 1.0106 28.8168C0.776756 28.6744 0.59488 28.4858 0.464969 28.2509C0.335057 28.016 0.263866 27.7624 0.251394 27.4901C0.238923 27.2179 0.310114 26.9518 0.464969 26.692L14.8852 1.74895C15.041 1.48913 15.2427 1.29426 15.49 1.16435C15.7374 1.03444 15.9904 0.969482 16.2492 0.969482C16.508 0.969482 16.7616 1.03444 17.01 1.16435C17.2584 1.29426 17.4595 1.48913 17.6133 1.74895L32.0335 26.692C32.1894 26.9518 32.2611 27.2184 32.2486 27.4917C32.2361 27.765 32.1644 28.0181 32.0335 28.2509C31.9025 28.4837 31.7207 28.6723 31.4879 28.8168C31.255 28.9613 30.9952 29.0325 30.7084 29.0304H1.79007ZM16.2492 24.3536C16.6909 24.3536 17.0614 24.2039 17.3607 23.9046C17.6601 23.6053 17.8092 23.2353 17.8082 22.7946C17.8071 22.354 17.6575 21.984 17.3592 21.6847C17.0609 21.3853 16.6909 21.2357 16.2492 21.2357C15.8075 21.2357 15.4375 21.3853 15.1393 21.6847C14.841 21.984 14.6913 22.354 14.6903 22.7946C14.6892 23.2353 14.8389 23.6058 15.1393 23.9061C15.4396 24.2065 15.8096 24.3556 16.2492 24.3536ZM16.2492 19.6767C16.6909 19.6767 17.0614 19.5271 17.3607 19.2278C17.6601 18.9285 17.8092 18.5585 17.8082 18.1178V13.441C17.8082 12.9993 17.6585 12.6293 17.3592 12.331C17.0599 12.0328 16.6899 11.8831 16.2492 11.8821C15.8086 11.881 15.4386 12.0307 15.1393 12.331C14.8399 12.6314 14.6903 13.0014 14.6903 13.441V18.1178C14.6903 18.5595 14.8399 18.93 15.1393 19.2293C15.4386 19.5287 15.8086 19.6778 16.2492 19.6767Z" fill="#F7D41C"/>
</svg>
