<svg width="179" height="179" viewBox="0 0 179 179" fill="none" xmlns="http://www.w3.org/2000/svg">
<g clip-path="url(#clip0_20_340)">
<path d="M89.3305 178.061C138.352 178.061 178.093 138.321 178.093 89.2987C178.093 40.2767 138.352 0.536621 89.3305 0.536621C40.3086 0.536621 0.568451 40.2767 0.568451 89.2987C0.568451 138.321 40.3086 178.061 89.3305 178.061Z" fill="#FFE1B1"/>
<path d="M89.3305 169.154C133.433 169.154 169.185 133.401 169.185 89.2987C169.185 45.1961 133.433 9.44385 89.3305 9.44385C45.2278 9.44385 9.47562 45.1961 9.47562 89.2987C9.47562 133.401 45.2278 169.154 89.3305 169.154Z" fill="#49DCB1"/>
<path d="M89.3305 160.324C128.557 160.324 160.356 128.525 160.356 89.299C160.356 50.0729 128.557 18.2739 89.3305 18.2739C50.1044 18.2739 18.3054 50.0729 18.3054 89.299C18.3054 128.525 50.1044 160.324 89.3305 160.324Z" fill="#256872"/>
<path d="M89.3305 151.417C123.637 151.417 151.448 123.606 151.448 89.2991C151.448 54.9923 123.637 27.1812 89.3305 27.1812C55.0237 27.1812 27.2126 54.9923 27.2126 89.2991C27.2126 123.606 55.0237 151.417 89.3305 151.417Z" fill="#456990"/>
<path d="M89.6947 142.587C119.125 142.587 142.983 118.729 142.983 89.2989C142.983 59.8687 119.125 36.0107 89.6947 36.0107C60.2644 36.0107 36.4065 59.8687 36.4065 89.2989C36.4065 118.729 60.2644 142.587 89.6947 142.587Z" fill="#2F424F"/>
<path d="M111.924 70.8605L102.194 60.9596C100.382 59.1082 98.2279 57.6404 95.855 56.641C93.4821 55.6417 90.9379 55.1306 88.3696 55.1373H75.7599C72.0578 55.1418 68.5085 56.6394 65.8907 59.3016C63.2728 61.9638 61.8002 65.5732 61.7957 69.3381V109.101C61.8002 112.866 63.2728 116.475 65.8907 119.137C68.5085 121.799 72.0578 123.297 75.7599 123.301H103.688C107.39 123.297 110.94 121.799 113.558 119.137C116.175 116.475 117.648 112.866 117.652 109.101V84.9165C117.659 82.3047 117.157 79.7175 116.173 77.3048C115.19 74.892 113.746 72.7016 111.924 70.8605ZM107.975 74.8765C108.828 75.7687 109.562 76.7714 110.157 77.8587H98.1026C97.3619 77.8587 96.6516 77.5594 96.1278 77.0268C95.604 76.4942 95.3098 75.7718 95.3098 75.0185V62.7603C96.3793 63.365 97.3661 64.1098 98.2451 64.9756L107.975 74.8765ZM112.067 109.101C112.067 111.36 111.184 113.528 109.613 115.126C108.042 116.723 105.91 117.621 103.688 117.621H75.7599C73.5378 117.621 71.4067 116.723 69.8354 115.126C68.2642 113.528 67.3814 111.36 67.3814 109.101V69.3381C67.3814 67.0784 68.2642 64.9111 69.8354 63.3132C71.4067 61.7153 73.5378 60.8176 75.7599 60.8176H88.3696C88.8276 60.8176 89.2717 60.9085 89.7241 60.9511V75.0185C89.7241 77.2783 90.6069 79.4455 92.1781 81.0434C93.7494 82.6413 95.8805 83.539 98.1026 83.539H111.936C111.977 83.9991 112.067 84.4479 112.067 84.9165V109.101Z" fill="white"/>
</g>
<defs>
<clipPath id="clip0_20_340">
<rect width="178.144" height="178.144" fill="white" transform="translate(0.258575 0.227051)"/>
</clipPath>
</defs>
</svg>
