<svg width="76" height="61" viewBox="0 0 76 61" fill="none" xmlns="http://www.w3.org/2000/svg">
<path d="M42.9985 52.7214L55.0708 30.1514C49.7508 28.9314 45.0446 23.4414 45.0446 16.5281C45.0446 7.9881 52.0015 0.871429 60.3908 0.871429C68.5754 0.871429 75.7369 7.78477 75.7369 16.5281C75.7369 19.9848 74.5092 24.4581 70.6215 31.7781L55.48 59.4314L42.9985 52.7214ZM1.25693 52.7214L13.3292 30.1514C8.00924 28.9314 3.30308 23.4414 3.30308 16.5281C3.30308 7.9881 10.26 0.871429 18.6492 0.871429C26.8339 0.871429 33.9954 7.78477 33.9954 16.5281C33.9954 19.9848 32.7677 24.4581 28.88 31.7781L13.7385 59.4314L1.25693 52.7214Z" fill="#FFEBCC"/>
</svg>
