<svg width="20" height="21" viewBox="0 0 20 21" fill="none" xmlns="http://www.w3.org/2000/svg">
<path d="M4.32444 18.6306C3.92741 18.6306 3.58874 18.4908 3.30844 18.2111C3.02874 17.9314 2.88889 17.5927 2.88889 17.1951V7.30884C2.63407 7.20336 2.42222 7.03239 2.25333 6.79595C2.08444 6.5595 2 6.2878 2 5.98084V4.06617C2 3.66913 2.13985 3.33047 2.41956 3.05017C2.69926 2.77047 3.03793 2.63062 3.43556 2.63062H16.5644C16.9615 2.63062 17.3001 2.77047 17.5804 3.05017C17.8601 3.32987 18 3.66854 18 4.06617V5.98173C18 6.28869 17.9156 6.56039 17.7467 6.79684C17.5778 7.03328 17.3659 7.20395 17.1111 7.30884V17.1951C17.1111 17.5921 16.9713 17.9308 16.6916 18.2111C16.4119 18.4908 16.0732 18.6306 15.6756 18.6306H4.32444ZM3.43556 6.52839H16.5644C16.7239 6.52839 16.8548 6.47713 16.9573 6.37462C17.0599 6.2715 17.1111 6.14024 17.1111 5.98084V4.06617C17.1111 3.90676 17.0599 3.7758 16.9573 3.67328C16.8548 3.57076 16.7239 3.5195 16.5644 3.5195H3.43556C3.27615 3.5195 3.14519 3.57076 3.04267 3.67328C2.94015 3.7758 2.88889 3.90676 2.88889 4.06617V5.98173C2.88889 6.14173 2.94015 6.27299 3.04267 6.3755C3.14519 6.47802 3.27615 6.52839 3.43556 6.52839ZM8.06844 11.4004H11.9484C12.064 11.4004 12.1556 11.3637 12.2231 11.2902C12.2907 11.2167 12.3244 11.1225 12.3244 11.0075C12.3244 10.8925 12.2907 10.801 12.2231 10.7328C12.1556 10.6647 12.064 10.6309 11.9484 10.6315H8.05156C7.936 10.6315 7.84444 10.6653 7.77689 10.7328C7.70933 10.801 7.67556 10.8928 7.67556 11.0084C7.67556 11.1239 7.7123 11.2179 7.78578 11.2902C7.85926 11.3625 7.95348 11.3992 8.06844 11.4004Z" fill="#2F424F"/>
</svg>
