<svg width="16" height="16" viewBox="0 0 16 16" fill="none" xmlns="http://www.w3.org/2000/svg">
<path d="M2.3998 16C1.9598 16 1.58327 15.8435 1.2702 15.5304C0.957138 15.2173 0.800338 14.8405 0.799805 14.4V3.2C0.799805 2.76 0.956605 2.38347 1.2702 2.0704C1.5838 1.75734 1.96034 1.60054 2.3998 1.6H3.1998V0.800003C3.1998 0.573336 3.2766 0.383469 3.4302 0.230403C3.5838 0.0773362 3.77367 0.000536092 3.9998 2.75862e-06C4.22594 -0.000530575 4.41607 0.0762695 4.5702 0.230403C4.72434 0.384536 4.80087 0.574403 4.7998 0.800003V1.6H11.1998V0.800003C11.1998 0.573336 11.2766 0.383469 11.4302 0.230403C11.5838 0.0773362 11.7737 0.000536092 11.9998 2.75862e-06C12.2259 -0.000530575 12.4161 0.0762695 12.5702 0.230403C12.7243 0.384536 12.8009 0.574403 12.7998 0.800003V1.6H13.5998C14.0398 1.6 14.4166 1.7568 14.7302 2.0704C15.0438 2.384 15.2003 2.76054 15.1998 3.2V14.4C15.1998 14.84 15.0433 15.2168 14.7302 15.5304C14.4171 15.844 14.0403 16.0005 13.5998 16H2.3998ZM2.3998 14.4H13.5998V6.4H2.3998V14.4Z" fill="#2F424F"/>
</svg>
