<svg width="311" height="684" viewBox="0 0 311 684" fill="none" xmlns="http://www.w3.org/2000/svg">
<rect x="2.4461" y="1.86438" width="306.904" height="679.809" rx="20.3503" fill="#FFFBF5" stroke="#2F424F" stroke-width="3.30004"/>
<rect x="103.097" y="669.023" width="105.601" height="3.30004" rx="1.65002" fill="#2F424F"/>
<path fill-rule="evenodd" clip-rule="evenodd" d="M179.634 241.015C182.79 243.111 184.717 246.63 184.717 250.39L184.693 250.414C184.693 252.655 184.018 254.824 182.717 256.704C184.018 258.584 184.693 260.753 184.693 262.995C184.693 266.947 182.597 270.586 179.176 272.635C177.658 278.082 172.792 281.841 167.107 281.841C162.12 281.841 157.808 278.901 155.784 274.659C153.785 278.901 149.448 281.841 144.461 281.841C138.776 281.841 133.886 278.082 132.392 272.635C128.971 270.61 126.875 266.947 126.875 262.995C126.875 260.753 127.55 258.584 128.851 256.704C127.55 254.824 126.875 252.679 126.875 250.414C126.875 246.654 128.802 243.136 131.958 241.039C131.934 240.822 131.934 240.581 131.934 240.34C131.934 235.616 135.042 231.832 139.161 231.302C139.981 227.133 143.666 224 147.979 224C151.327 224 154.242 225.831 155.808 228.53C157.374 225.831 160.289 224 163.638 224C167.95 224 171.636 227.133 172.455 231.302C176.598 231.856 179.682 235.616 179.682 240.316C179.682 240.421 179.671 240.533 179.659 240.647C179.647 240.767 179.634 240.891 179.634 241.015ZM134.632 271.574C135.716 276.202 139.764 279.431 144.485 279.431V279.455C150.05 279.455 154.604 274.924 154.604 269.333V233.061C154.604 229.398 151.64 226.434 147.979 226.434C144.558 226.434 141.667 229.133 141.402 232.555L141.306 233.664H140.197C136.511 233.664 134.343 237.062 134.343 240.34C134.343 240.725 134.608 242.292 134.608 242.292L133.861 242.702C131.043 244.292 129.308 247.233 129.308 250.414C129.308 252.414 130.007 254.342 131.308 255.957L131.91 256.704L131.308 257.451C130.007 259.066 129.308 260.994 129.308 262.995C129.308 266.248 131.115 269.213 134.03 270.779L134.512 271.044L134.632 271.574ZM182.308 262.995C182.308 260.994 181.609 259.066 180.308 257.451V257.427L179.706 256.68L180.308 255.933C181.609 254.318 182.308 252.39 182.308 250.39C182.308 247.209 180.573 244.268 177.755 242.678L177.008 242.268C177.008 242.268 177.273 240.701 177.273 240.316C177.273 237.038 175.105 233.64 171.467 233.64H170.359L170.214 232.531C169.949 229.109 167.058 226.41 163.638 226.41C159.976 226.41 157.013 229.374 157.013 233.037V269.309C157.013 274.876 161.542 279.431 167.131 279.431C171.877 279.431 175.924 276.202 176.984 271.574L177.104 271.044L177.586 270.779C180.501 269.213 182.308 266.248 182.308 262.995Z" fill="url(#paint0_linear_32_607)"/>
<g clip-path="url(#clip0_32_607)">
<path d="M75.0509 341.629V296.726H92.7798C106.238 296.726 116.397 306.179 116.397 319.145C116.397 332.111 106.238 341.629 92.9092 341.629H75.0509ZM92.6504 304.454H83.8507V333.9H92.6504C101.385 333.9 107.338 328.087 107.338 319.081C107.338 310.203 101.321 304.454 92.6504 304.454ZM188.577 342.331C183.206 342.331 178.094 340.223 174.989 336.646L180.036 331.6C182.171 333.964 185.017 335.177 188.512 335.177C191.229 335.177 192.717 334.411 192.717 332.878C192.717 327.832 176.994 331.026 176.994 319.72C176.994 313.844 181.588 310.011 189.029 310.011C194.206 310.011 198.541 311.864 201.258 315.377L196.147 320.423C194.271 318.123 191.812 317.165 189.094 317.165C186.571 317.165 185.212 317.932 185.212 319.337C185.212 323.872 200.87 321.061 200.87 332.495C200.87 338.563 196.147 342.331 188.577 342.331ZM207.75 354.531L215.192 339.01L203.351 310.778H212.538L219.656 330.387L227.097 310.778H236.35L222.438 341.82L216.744 354.531H207.75Z" fill="#2F424F"/>
<path d="M135.36 342.267C126.689 342.267 120.284 335.369 120.284 326.107C120.284 316.845 126.689 309.947 135.36 309.947C138.853 309.947 141.895 311.161 144.03 313.141V310.586H153.736V341.628H144.03V339.073C141.895 341.053 138.853 342.267 135.36 342.267ZM137.365 333.453C141.571 333.453 144.418 330.45 144.418 326.107C144.418 321.764 141.571 318.762 137.43 318.762C133.289 318.762 130.313 321.828 130.313 326.107C130.313 330.387 133.289 333.453 137.365 333.453ZM165.688 306.306C162.582 306.306 160.317 303.943 160.317 300.941C160.317 297.939 162.582 295.576 165.688 295.576C168.793 295.576 170.994 297.939 170.994 300.941C170.994 303.943 168.793 306.306 165.688 306.306ZM160.706 341.628V310.586H170.605V341.628H160.706Z" fill="#49DCB1"/>
</g>
<rect x="76.4137" y="368.031" width="31.753" height="4.41013" fill="#456990"/>
<rect x="108.167" y="368.031" width="31.753" height="4.41013" fill="#256872"/>
<rect x="139.92" y="368.031" width="31.753" height="4.41013" fill="#49DCB1"/>
<rect x="171.673" y="368.031" width="31.753" height="4.41013" fill="#FFE1B1"/>
<rect x="203.426" y="368.031" width="31.753" height="4.41013" fill="#FBF4E9"/>
<defs>
<linearGradient id="paint0_linear_32_607" x1="125.524" y1="283.193" x2="186.339" y2="283.193" gradientUnits="userSpaceOnUse">
<stop stop-color="#456990"/>
<stop offset="0.247725" stop-color="#256872"/>
<stop offset="0.502725" stop-color="#49DCB1"/>
<stop offset="0.747725" stop-color="#FFE1B1"/>
<stop offset="1" stop-color="#FBF4E9"/>
</linearGradient>
<clipPath id="clip0_32_607">
<rect width="161.705" height="59.7288" fill="white" transform="translate(74.9437 295.072)"/>
</clipPath>
</defs>
</svg>
