<svg width="20" height="21" viewBox="0 0 20 21" fill="none" xmlns="http://www.w3.org/2000/svg">
<path d="M2 18.6306V8.23062C2 7.79062 2.1568 7.41382 2.4704 7.10022C2.78347 6.78715 3.16 6.63062 3.6 6.63062H5.2V10.6306C5.2 11.0706 5.3568 11.4471 5.6704 11.7602C5.98347 12.0738 6.36 12.2306 6.8 12.2306H14.8V14.6306C14.8 15.0706 14.6435 15.4474 14.3304 15.761C14.0168 16.0741 13.64 16.2306 13.2 16.2306H4.4L2 18.6306ZM14.8 12.2306V8.23062C14.8 7.79062 14.6435 7.41382 14.3304 7.10022C14.0168 6.78715 13.64 6.63062 13.2 6.63062H5.2V4.23062C5.2 3.79062 5.3568 3.41382 5.6704 3.10022C5.98347 2.78715 6.36 2.63062 6.8 2.63062H16.4C16.84 2.63062 17.2168 2.78715 17.5304 3.10022C17.8435 3.41382 18 3.79062 18 4.23062V10.6306C18 11.0706 17.8435 11.4471 17.5304 11.7602C17.2168 12.0738 16.84 12.2306 16.4 12.2306H14.8Z" fill="#2F424F"/>
</svg>
