<svg width="15" height="15" viewBox="0 0 15 15" fill="none" xmlns="http://www.w3.org/2000/svg">
<path d="M0.0415039 14.375V5.275C0.0415039 4.89 0.178704 4.5603 0.453104 4.2859C0.727037 4.01197 1.0565 3.875 1.4415 3.875H2.8415V7.375C2.8415 7.76 2.9787 8.08947 3.2531 8.3634C3.52704 8.6378 3.8565 8.775 4.2415 8.775H11.2415V10.875C11.2415 11.26 11.1045 11.5897 10.8306 11.8641C10.5562 12.138 10.2265 12.275 9.8415 12.275H2.1415L0.0415039 14.375ZM11.2415 8.775V5.275C11.2415 4.89 11.1045 4.5603 10.8306 4.2859C10.5562 4.01197 10.2265 3.875 9.8415 3.875H2.8415V1.775C2.8415 1.39 2.9787 1.0603 3.2531 0.7859C3.52704 0.511967 3.8565 0.375 4.2415 0.375H12.6415C13.0265 0.375 13.3562 0.511967 13.6306 0.7859C13.9045 1.0603 14.0415 1.39 14.0415 1.775V7.375C14.0415 7.76 13.9045 8.08947 13.6306 8.3634C13.3562 8.6378 13.0265 8.775 12.6415 8.775H11.2415Z" fill="#49DCB1"/>
</svg>
