<svg width="33" height="32" viewBox="0 0 33 32" fill="none" xmlns="http://www.w3.org/2000/svg">
<path d="M16.083 0C24.9198 0 32.083 7.1632 32.083 16C32.083 24.8368 24.9198 32 16.083 32C7.24621 32 0.0830078 24.8368 0.0830078 16C0.0830078 7.1632 7.24621 0 16.083 0ZM21.739 10.2096L13.819 18.1296L10.427 14.736C10.2785 14.5873 10.1021 14.4694 9.90795 14.3889C9.71382 14.3084 9.50573 14.267 9.29557 14.2669C8.87114 14.2667 8.46403 14.4352 8.16381 14.7352C7.86358 15.0352 7.69483 15.4422 7.69468 15.8666C7.69453 16.2911 7.863 16.6982 8.16301 16.9984L12.5758 21.4112C12.7392 21.5747 12.9333 21.7044 13.1469 21.7929C13.3605 21.8814 13.5894 21.927 13.8206 21.927C14.0518 21.927 14.2807 21.8814 14.4943 21.7929C14.7079 21.7044 14.902 21.5747 15.0654 21.4112L24.003 12.4736C24.3032 12.1734 24.4719 11.7662 24.4719 11.3416C24.4719 10.917 24.3032 10.5098 24.003 10.2096C23.7028 9.90937 23.2956 9.74071 22.871 9.74071C22.4464 9.74071 22.0392 9.90937 21.739 10.2096Z" fill="#49DCB1"/>
</svg>
