<svg width="18" height="19" viewBox="0 0 18 19" fill="none" xmlns="http://www.w3.org/2000/svg">
<path d="M14.3912 11.475C14.5769 11.475 14.7549 11.5487 14.8862 11.68C15.0175 11.8113 15.0912 11.9893 15.0912 12.175V14.975C15.0912 15.3463 14.9437 15.7024 14.6812 15.9649C14.4186 16.2275 14.0625 16.375 13.6912 16.375H3.89121C3.51991 16.375 3.16381 16.2275 2.90126 15.9649C2.63871 15.7024 2.49121 15.3463 2.49121 14.975V12.175C2.49121 11.9893 2.56496 11.8113 2.69624 11.68C2.82751 11.5487 3.00556 11.475 3.19121 11.475C3.37686 11.475 3.55491 11.5487 3.68619 11.68C3.81746 11.8113 3.89121 11.9893 3.89121 12.175V14.975H13.6912V12.175C13.6912 11.9893 13.765 11.8113 13.8962 11.68C14.0275 11.5487 14.2056 11.475 14.3912 11.475ZM8.79121 2.375C8.97686 2.375 9.15491 2.44875 9.28619 2.58003C9.41746 2.7113 9.49121 2.88935 9.49121 3.075V10.2451L11.2664 8.4699C11.331 8.40304 11.4082 8.34972 11.4936 8.31303C11.579 8.27634 11.6709 8.25703 11.7638 8.25622C11.8568 8.25542 11.949 8.27313 12.035 8.30832C12.121 8.34352 12.1992 8.3955 12.2649 8.46122C12.3306 8.52695 12.3826 8.6051 12.4178 8.69113C12.453 8.77716 12.4707 8.86934 12.4699 8.96228C12.4691 9.05523 12.4498 9.14708 12.4131 9.23248C12.3764 9.31789 12.3231 9.39513 12.2562 9.4597L9.41001 12.3059C9.32876 12.3872 9.23229 12.4516 9.12611 12.4956C9.01994 12.5396 8.90614 12.5623 8.79121 12.5623C8.67628 12.5623 8.56248 12.5396 8.45631 12.4956C8.35013 12.4516 8.25367 12.3872 8.17241 12.3059L5.32621 9.4597C5.25935 9.39513 5.20603 9.31789 5.16934 9.23248C5.13265 9.14708 5.11334 9.05523 5.11254 8.96228C5.11173 8.86934 5.12944 8.77716 5.16464 8.69113C5.19983 8.6051 5.25181 8.52695 5.31753 8.46122C5.38326 8.3955 5.46142 8.34352 5.54744 8.30832C5.63347 8.27313 5.72565 8.25542 5.81859 8.25622C5.91154 8.25703 6.00339 8.27634 6.08879 8.31303C6.1742 8.34972 6.25144 8.40304 6.31601 8.4699L8.09121 10.2451V3.075C8.09121 2.88935 8.16496 2.7113 8.29624 2.58003C8.42751 2.44875 8.60556 2.375 8.79121 2.375Z" fill="#49DCB1"/>
</svg>
