<svg width="180" height="179" viewBox="0 0 180 179" fill="none" xmlns="http://www.w3.org/2000/svg">
<g clip-path="url(#clip0_20_287)">
<path d="M89.9541 178.061C138.976 178.061 178.716 138.321 178.716 89.2987C178.716 40.2767 138.976 0.536621 89.9541 0.536621C40.9322 0.536621 1.19205 40.2767 1.19205 89.2987C1.19205 138.321 40.9322 178.061 89.9541 178.061Z" fill="#FFE1B1"/>
<path d="M89.9541 169.154C134.057 169.154 169.809 133.401 169.809 89.2987C169.809 45.1961 134.057 9.44385 89.9541 9.44385C45.8514 9.44385 10.0992 45.1961 10.0992 89.2987C10.0992 133.401 45.8514 169.154 89.9541 169.154Z" fill="#49DCB1"/>
<path d="M89.9542 160.324C129.18 160.324 160.979 128.525 160.979 89.299C160.979 50.0729 129.18 18.2739 89.9542 18.2739C50.7281 18.2739 18.9291 50.0729 18.9291 89.299C18.9291 128.525 50.7281 160.324 89.9542 160.324Z" fill="#256872"/>
<path d="M89.9542 151.417C124.261 151.417 152.072 123.606 152.072 89.2991C152.072 54.9923 124.261 27.1812 89.9542 27.1812C55.6474 27.1812 27.8362 54.9923 27.8362 89.2991C27.8362 123.606 55.6474 151.417 89.9542 151.417Z" fill="#456990"/>
<path d="M89.9541 142.587C119.384 142.587 143.242 118.729 143.242 89.2989C143.242 59.8687 119.384 36.0107 89.9541 36.0107C60.5238 36.0107 36.6659 59.8687 36.6659 89.2989C36.6659 118.729 60.5238 142.587 89.9541 142.587Z" fill="#2F424F"/>
<path d="M92.6301 90.4026H113.458C117.764 90.4026 121.269 86.8983 121.269 82.5921V74.7816C121.269 70.4755 117.764 66.9712 113.458 66.9712H106.725L103.044 63.2898C102.06 62.3057 100.753 61.7642 99.3627 61.7642H92.6301C88.3239 61.7642 84.8196 65.2685 84.8196 69.5746V74.7816H63.9916V64.3677C63.9916 62.9279 62.8253 61.7642 61.3881 61.7642C59.951 61.7642 58.7847 62.9279 58.7847 64.3677V100.817C58.7847 107.994 64.6243 113.834 71.8021 113.834H84.8196V116.438C84.8196 120.744 88.3239 124.248 92.6301 124.248H113.458C117.764 124.248 121.269 120.744 121.269 116.438V108.627C121.269 104.321 117.764 100.817 113.458 100.817H106.725L103.044 97.1353C102.06 96.1511 100.753 95.6096 99.3627 95.6096H92.6301C88.3239 95.6096 84.8196 99.1139 84.8196 103.42V108.627H71.8021C67.496 108.627 63.9916 105.123 63.9916 100.817V79.9886H84.8196V82.5921C84.8196 86.8983 88.3239 90.4026 92.6301 90.4026ZM90.0266 103.42C90.0266 101.983 91.1956 100.817 92.6301 100.817H99.3627L103.044 104.498C104.028 105.482 105.335 106.024 106.725 106.024H113.458C114.893 106.024 116.062 107.19 116.062 108.627V116.438C116.062 117.875 114.893 119.041 113.458 119.041H92.6301C91.1956 119.041 90.0266 117.875 90.0266 116.438V103.42ZM90.0266 69.5746C90.0266 68.1375 91.1956 66.9712 92.6301 66.9712H99.3627L103.044 70.6525C104.028 71.6366 105.335 72.1781 106.725 72.1781H113.458C114.893 72.1781 116.062 73.3445 116.062 74.7816V82.5921C116.062 84.0293 114.893 85.1956 113.458 85.1956H92.6301C91.1956 85.1956 90.0266 84.0293 90.0266 82.5921V69.5746Z" fill="white"/>
</g>
<defs>
<clipPath id="clip0_20_287">
<rect width="178.144" height="178.144" fill="white" transform="translate(0.882294 0.227051)"/>
</clipPath>
</defs>
</svg>
