<svg width="193" height="192" viewBox="0 0 193 192" fill="none" xmlns="http://www.w3.org/2000/svg">
<g clip-path="url(#clip0_20_158)">
<path d="M114.367 60.8816L44.3534 86.1065C40.3574 87.5218 37.6101 91.1015 37.4436 95.3473C37.1938 99.5931 39.6081 103.506 43.4376 105.254C43.6041 105.254 77.1541 115.577 77.1541 115.577C77.1541 115.577 87.6437 148.961 87.6437 149.044C89.4752 152.873 93.3047 155.204 97.5505 155.038C100.131 154.871 102.546 153.789 104.294 152.041C106.042 150.293 106.209 149.627 106.708 148.128L131.766 78.2809C133.598 73.2859 132.349 67.7914 128.603 64.0451C124.857 60.2988 119.362 59.0501 114.367 60.8816ZM46.2682 98.3443C44.8529 97.5951 44.7696 96.1798 44.8529 95.6803C44.8529 95.2641 45.1026 93.6823 46.7677 93.1828L116.948 67.9579C117.864 67.6249 118.863 67.5416 119.778 67.6249L79.0689 108.334L46.3514 98.3443H46.2682ZM124.69 75.7002L99.6318 145.547C99.049 147.212 97.5505 147.462 97.1342 147.462C96.718 147.462 95.3027 147.462 94.4702 146.047L84.3137 113.579L125.023 72.8697C125.106 73.7854 125.023 74.7844 124.69 75.7002Z" fill="white"/>
<g clip-path="url(#clip1_20_158)">
<path d="M96.9999 191.109C149.467 191.109 192 148.576 192 96.1086C192 43.6416 149.467 1.10864 96.9999 1.10864C44.5329 1.10864 1.99991 43.6416 1.99991 96.1086C1.99991 148.576 44.5329 191.109 96.9999 191.109Z" fill="#49DCB1"/>
<path d="M114.513 61.413L45.0391 86.4434C41.0739 87.8478 38.3478 91.4 38.1826 95.613C37.9348 99.826 40.3305 103.709 44.1305 105.443C44.2957 105.443 77.587 115.687 77.587 115.687C77.587 115.687 87.9957 148.813 87.9957 148.896C89.8131 152.696 93.6131 155.009 97.8261 154.843C100.387 154.678 102.783 153.604 104.517 151.87C106.252 150.135 106.417 149.474 106.913 147.987L131.778 78.6782C133.596 73.7217 132.357 68.2695 128.639 64.5521C124.922 60.8347 119.47 59.5956 114.513 61.413ZM46.9391 98.5869C45.5348 97.8434 45.4522 96.4391 45.5348 95.9434C45.5348 95.5304 45.7826 93.9608 47.4348 93.4652L117.074 68.4347C117.983 68.1043 118.974 68.0217 119.883 68.1043L79.487 108.5L47.0218 98.5869H46.9391ZM124.757 76.1174L99.8913 145.426C99.3131 147.078 97.8261 147.326 97.4131 147.326C97 147.326 95.5957 147.326 94.7696 145.922L84.6913 113.704L125.087 73.3087C125.17 74.2174 125.087 75.2087 124.757 76.1174Z" fill="white"/>
<g clip-path="url(#clip2_20_158)">
<path d="M97.2055 190.778C149.49 190.778 191.875 148.393 191.875 96.1085C191.875 43.824 149.49 1.43896 97.2055 1.43896C44.921 1.43896 2.53598 43.824 2.53598 96.1085C2.53598 148.393 44.921 190.778 97.2055 190.778Z" fill="#FFE1B1"/>
<path d="M97.2055 181.278C144.243 181.278 182.375 143.146 182.375 96.1085C182.375 49.0707 144.243 10.939 97.2055 10.939C50.1677 10.939 12.036 49.0707 12.036 96.1085C12.036 143.146 50.1677 181.278 97.2055 181.278Z" fill="#49DCB1"/>
<path d="M97.2056 171.861C139.042 171.861 172.958 137.945 172.958 96.1086C172.958 54.2718 139.042 20.3564 97.2056 20.3564C55.3688 20.3564 21.4534 54.2718 21.4534 96.1086C21.4534 137.945 55.3688 171.861 97.2056 171.861Z" fill="#256872"/>
<path d="M97.2056 162.361C133.796 162.361 163.458 132.699 163.458 96.1086C163.458 59.5186 133.796 29.8564 97.2056 29.8564C60.6155 29.8564 30.9534 59.5186 30.9534 96.1086C30.9534 132.699 60.6155 162.361 97.2056 162.361Z" fill="#456990"/>
<path d="M97.2055 152.943C128.594 152.943 154.04 127.498 154.04 96.1087C154.04 64.7197 128.594 39.2739 97.2055 39.2739C65.8165 39.2739 40.3707 64.7197 40.3707 96.1087C40.3707 127.498 65.8165 152.943 97.2055 152.943Z" fill="#2F424F"/>
<path d="M113.292 67.3876L59.0673 86.9602C55.9724 88.0583 53.8447 90.8359 53.7157 94.1303C53.5223 97.4247 55.3921 100.461 58.358 101.817C58.487 101.817 84.471 109.827 84.471 109.827C84.471 109.827 92.5951 135.73 92.5951 135.795C94.0136 138.766 96.9795 140.575 100.268 140.446C102.267 140.316 104.136 139.477 105.49 138.12C106.844 136.764 106.973 136.247 107.36 135.084L126.768 80.8882C128.186 77.0124 127.219 72.7491 124.318 69.8423C121.416 66.9354 117.161 65.9665 113.292 67.3876ZM60.5502 96.4558C59.4541 95.8744 59.3896 94.7763 59.4541 94.3887C59.4541 94.0657 59.6475 92.8384 60.9371 92.4508L115.291 72.8783C116 72.6199 116.774 72.5553 117.483 72.6199L85.954 104.207L60.6147 96.4558H60.5502ZM121.287 78.8857L101.88 133.082C101.428 134.374 100.268 134.567 99.9454 134.567C99.623 134.567 98.5269 134.567 97.8822 133.469L90.016 108.277L121.545 76.6894C121.61 77.4 121.545 78.1751 121.287 78.8857Z" fill="white"/>
</g>
</g>
</g>
<defs>
<clipPath id="clip0_20_158">
<rect width="191.476" height="191.476" fill="white" transform="translate(0.979889 0.108643)"/>
</clipPath>
<clipPath id="clip1_20_158">
<rect width="190" height="190" fill="white" transform="translate(1.99991 1.10864)"/>
</clipPath>
<clipPath id="clip2_20_158">
<rect width="190" height="190" fill="white" transform="translate(2.20551 1.10864)"/>
</clipPath>
</defs>
</svg>
