<svg width="180" height="179" viewBox="0 0 180 179" fill="none" xmlns="http://www.w3.org/2000/svg">
<g clip-path="url(#clip0_20_233)">
<path d="M90.0459 178.074C139.068 178.074 178.808 138.334 178.808 89.3118C178.808 40.2899 139.068 0.549805 90.0459 0.549805C41.024 0.549805 1.28388 40.2899 1.28388 89.3118C1.28388 138.334 41.024 178.074 90.0459 178.074Z" fill="#FFE1B1"/>
<path d="M90.0459 169.167C134.149 169.167 169.901 133.414 169.901 89.3119C169.901 45.2093 134.149 9.45703 90.0459 9.45703C45.9433 9.45703 10.1911 45.2093 10.1911 89.3119C10.1911 133.414 45.9433 169.167 90.0459 169.167Z" fill="#49DCB1"/>
<path d="M90.0459 160.337C129.272 160.337 161.071 128.538 161.071 89.3117C161.071 50.0856 129.272 18.2866 90.0459 18.2866C50.8198 18.2866 19.0208 50.0856 19.0208 89.3117C19.0208 128.538 50.8198 160.337 90.0459 160.337Z" fill="#256872"/>
<path d="M90.0459 151.43C124.353 151.43 152.164 123.619 152.164 89.3118C152.164 55.005 124.353 27.1938 90.0459 27.1938C55.7391 27.1938 27.928 55.005 27.928 89.3118C27.928 123.619 55.7391 151.43 90.0459 151.43Z" fill="#456990"/>
<path d="M90.0458 142.6C119.476 142.6 143.334 118.742 143.334 89.3116C143.334 59.8814 119.476 36.0234 90.0458 36.0234C60.6156 36.0234 36.7576 59.8814 36.7576 89.3116C36.7576 118.742 60.6156 142.6 90.0458 142.6Z" fill="#2F424F"/>
<path d="M120.175 86.6011C121.724 86.6011 122.886 85.3618 122.886 83.8902C122.886 82.4186 121.647 81.1793 120.175 81.1793H117.465V75.6801H120.175C121.724 75.6801 122.886 74.4408 122.886 72.9692C122.886 71.4976 121.647 70.2583 120.175 70.2583H116.303C114.909 67.0827 112.353 64.5268 109.254 63.21V59.3373C109.254 57.7883 108.015 56.6265 106.544 56.6265C105.072 56.6265 103.833 57.8657 103.833 59.3373V62.0482H98.3335V59.3373C98.3335 57.7883 97.0942 56.6265 95.6226 56.6265C94.151 56.6265 92.9117 57.8657 92.9117 59.3373V62.0482H87.4125V59.3373C87.4125 57.7883 86.1732 56.6265 84.7016 56.6265C83.23 56.6265 81.9907 57.8657 81.9907 59.3373V62.0482H76.4915V59.3373C76.4915 57.7883 75.2522 56.6265 73.7806 56.6265C72.309 56.6265 71.0697 57.8657 71.0697 59.3373V63.21C67.8941 64.6042 65.3382 67.1602 64.0214 70.2583H60.1487C58.5997 70.2583 57.4379 71.4976 57.4379 72.9692C57.4379 74.4408 58.6771 75.6801 60.1487 75.6801H62.8596V81.1793H60.1487C58.5997 81.1793 57.4379 82.4186 57.4379 83.8902C57.4379 85.3618 58.6771 86.6011 60.1487 86.6011H62.8596V92.1003H60.1487C58.5997 92.1003 57.4379 93.3396 57.4379 94.8112C57.4379 96.2828 58.6771 97.5221 60.1487 97.5221H62.8596V103.021H60.1487C58.5997 103.021 57.4379 104.261 57.4379 105.732C57.4379 107.204 58.6771 108.443 60.1487 108.443H64.0214C65.4156 111.619 67.9716 114.175 71.0697 115.491V119.364C71.0697 120.913 72.309 122.075 73.7806 122.075C75.2522 122.075 76.4915 120.836 76.4915 119.364V116.653H81.9907V119.364C81.9907 120.913 83.23 122.075 84.7016 122.075C86.1732 122.075 87.4125 120.836 87.4125 119.364V116.653H92.9117V119.364C92.9117 120.913 94.151 122.075 95.6226 122.075C97.0942 122.075 98.3335 120.836 98.3335 119.364V116.653H103.833V119.364C103.833 120.913 105.072 122.075 106.544 122.075C108.015 122.075 109.254 120.836 109.254 119.364V115.491C112.43 114.097 114.986 111.541 116.303 108.443H120.175C121.724 108.443 122.886 107.204 122.886 105.732C122.886 104.261 121.647 103.021 120.175 103.021H117.465V97.5221H120.175C121.724 97.5221 122.886 96.2828 122.886 94.8112C122.886 93.3396 121.647 92.1003 120.175 92.1003H117.465V86.6011H120.175ZM103.755 111.231H76.3366C71.7668 111.231 68.1265 107.514 68.1265 103.021V75.6026C68.1265 71.0329 71.8443 67.3925 76.3366 67.3925H103.755C108.325 67.3925 111.965 71.1103 111.965 75.6026V103.021C111.965 107.591 108.248 111.231 103.755 111.231ZM103.755 75.6026V103.021C103.755 104.57 102.516 105.732 101.044 105.732C99.5727 105.732 98.3335 104.493 98.3335 103.021V75.6026C98.3335 74.0536 99.5727 72.8918 101.044 72.8918C102.516 72.8918 103.755 74.131 103.755 75.6026ZM88.8841 76.4546C88.4194 74.2859 86.6379 72.8918 84.6241 72.8918C82.6103 72.8918 80.8289 74.2859 80.3642 76.3772L73.7806 102.324C73.3933 103.796 74.3228 105.267 75.7944 105.655C77.266 106.042 78.7377 105.113 79.1249 103.641L79.9769 100.233H89.3488L90.2008 103.641C90.5106 104.88 91.595 105.732 92.8342 105.732C94.0735 105.732 93.299 105.732 93.5313 105.655C95.0029 105.267 95.8549 103.796 95.5451 102.324L88.9615 76.3772L88.8841 76.4546ZM81.2936 94.8112L84.6241 81.7989L87.9547 94.8112H81.3711H81.2936Z" fill="white"/>
</g>
<defs>
<clipPath id="clip0_20_233">
<rect width="178.144" height="178.144" fill="white" transform="translate(0.974022 0.23999)"/>
</clipPath>
</defs>
</svg>
