<svg width="34" height="34" viewBox="0 0 34 34" fill="none" xmlns="http://www.w3.org/2000/svg">
<path d="M16.6104 8.93192C15.0389 8.93192 13.5026 9.39795 12.1959 10.2711C10.8891 11.1442 9.87068 12.3852 9.26926 13.8371C8.66785 15.2891 8.51049 16.8868 8.81709 18.4281C9.12369 19.9695 9.88047 21.3854 10.9917 22.4966C12.103 23.6079 13.5189 24.3647 15.0602 24.6713C16.6016 24.9779 18.1993 24.8205 19.6512 24.2191C21.1032 23.6177 22.3442 22.5992 23.2173 21.2925C24.0904 19.9858 24.5565 18.4495 24.5565 16.8779C24.5565 14.7705 23.7193 12.7494 22.2291 11.2593C20.739 9.76909 18.7178 8.93192 16.6104 8.93192ZM16.6104 22.1753C15.5627 22.1753 14.5385 21.8646 13.6674 21.2825C12.7962 20.7005 12.1173 19.8731 11.7163 18.9052C11.3154 17.9372 11.2105 16.8721 11.4149 15.8445C11.6193 14.8169 12.1238 13.873 12.8646 13.1322C13.6055 12.3913 14.5494 11.8868 15.577 11.6824C16.6046 11.478 17.6697 11.5829 18.6376 11.9838C19.6056 12.3848 20.4329 13.0638 21.015 13.9349C21.5971 14.806 21.9078 15.8302 21.9078 16.8779C21.9034 18.2815 21.3439 19.6264 20.3514 20.6189C19.3589 21.6114 18.014 22.1709 16.6104 22.1753ZM23.8943 0.32373H9.32658C6.86792 0.32373 4.50997 1.30043 2.77144 3.03896C1.03291 4.77749 0.0562134 7.13544 0.0562134 9.59409V24.1618C0.0562134 26.6205 1.03291 28.9784 2.77144 30.7169C4.50997 32.4555 6.86792 33.4322 9.32658 33.4322H23.8943C26.3529 33.4322 28.7109 32.4555 30.4494 30.7169C32.188 28.9784 33.1646 26.6205 33.1646 24.1618V9.59409C33.1646 7.13544 32.188 4.77749 30.4494 3.03896C28.7109 1.30043 26.3529 0.32373 23.8943 0.32373ZM30.516 24.1618C30.516 25.0314 30.3447 25.8924 30.0119 26.6958C29.6792 27.4992 29.1914 28.2292 28.5765 28.844C27.9616 29.4589 27.2317 29.9467 26.4283 30.2794C25.6249 30.6122 24.7639 30.7835 23.8943 30.7835H9.32658C8.457 30.7835 7.59595 30.6122 6.79257 30.2794C5.98919 29.9467 5.25922 29.4589 4.64434 28.844C4.02945 28.2292 3.5417 27.4992 3.20893 26.6958C2.87616 25.8924 2.70489 25.0314 2.70489 24.1618V9.59409C2.70489 7.83791 3.40253 6.15366 4.64434 4.91185C5.88614 3.67005 7.57039 2.97241 9.32658 2.97241H23.8943C24.7639 2.97241 25.6249 3.14368 26.4283 3.47645C27.2317 3.80922 27.9616 4.29697 28.5765 4.91185C29.1914 5.52673 29.6792 6.2567 30.0119 7.06008C30.3447 7.86346 30.516 8.72452 30.516 9.59409V24.1618ZM27.2051 8.26975C27.2051 8.66265 27.0886 9.04672 26.8703 9.3734C26.6521 9.70008 26.3418 9.95469 25.9788 10.105C25.6158 10.2554 25.2164 10.2947 24.8311 10.2181C24.4457 10.1414 24.0918 9.95224 23.814 9.67443C23.5361 9.39661 23.3469 9.04265 23.2703 8.6573C23.1936 8.27196 23.233 7.87254 23.3833 7.50955C23.5337 7.14656 23.7883 6.83631 24.115 6.61803C24.4417 6.39975 24.8257 6.28325 25.2186 6.28325C25.7455 6.28325 26.2508 6.49254 26.6233 6.86508C26.9958 7.23762 27.2051 7.7429 27.2051 8.26975Z" fill="#FBF4E9"/>
</svg>
