<svg width="33" height="34" viewBox="0 0 33 34" fill="none" xmlns="http://www.w3.org/2000/svg">
<path d="M12.0217 8.93192C12.0217 9.32482 11.9084 9.70889 11.6962 10.0356C11.484 10.3622 11.1823 10.6169 10.8294 10.7672C10.4765 10.9176 10.0882 10.9569 9.71356 10.8803C9.33892 10.8036 8.99479 10.6144 8.72469 10.3366C8.45459 10.0588 8.27065 9.70482 8.19613 9.31947C8.12161 8.93413 8.15985 8.53471 8.30603 8.17172C8.45221 7.80873 8.69975 7.49848 9.01736 7.2802C9.33496 7.06192 9.70836 6.94542 10.0903 6.94542C10.6026 6.94542 11.0938 7.15471 11.456 7.52725C11.8182 7.89979 12.0217 8.40507 12.0217 8.93192ZM32.6225 2.97241V30.7835C32.6225 31.486 32.3512 32.1597 31.8682 32.6564C31.3853 33.1531 30.7303 33.4322 30.0474 33.4322H3.00882C2.32586 33.4322 1.67087 33.1531 1.18795 32.6564C0.70502 32.1597 0.433716 31.486 0.433716 30.7835V2.97241C0.433716 2.26993 0.70502 1.59623 1.18795 1.09951C1.67087 0.602786 2.32586 0.32373 3.00882 0.32373H30.0474C30.7303 0.32373 31.3853 0.602786 31.8682 1.09951C32.3512 1.59623 32.6225 2.26993 32.6225 2.97241ZM30.0474 30.7835V2.97241H3.00882V30.7835H30.0474ZM10.0903 12.9049C9.74886 12.9049 9.42137 13.0445 9.17991 13.2928C8.93845 13.5412 8.80279 13.878 8.80279 14.2293V24.824C8.80279 25.1752 8.93845 25.5121 9.17991 25.7604C9.42137 26.0088 9.74886 26.1483 10.0903 26.1483C10.4318 26.1483 10.7593 26.0088 11.0008 25.7604C11.2422 25.5121 11.3779 25.1752 11.3779 24.824V14.2293C11.3779 13.878 11.2422 13.5412 11.0008 13.2928C10.7593 13.0445 10.4318 12.9049 10.0903 12.9049ZM19.747 12.9049C18.5879 12.9049 17.4554 13.2624 16.4959 13.9313C16.4255 13.6135 16.2436 13.3336 15.9851 13.1451C15.7266 12.9566 15.4096 12.8728 15.0948 12.9097C14.78 12.9466 14.4894 13.1016 14.2788 13.3451C14.0681 13.5885 13.9521 13.9034 13.953 14.2293V24.824C13.953 25.1752 14.0886 25.5121 14.3301 25.7604C14.5716 26.0088 14.8991 26.1483 15.2405 26.1483C15.582 26.1483 15.9095 26.0088 16.151 25.7604C16.3924 25.5121 16.5281 25.1752 16.5281 24.824V18.8645C16.5281 17.9864 16.8672 17.1442 17.4709 16.5233C18.0745 15.9024 18.8933 15.5536 19.747 15.5536C20.6007 15.5536 21.4194 15.9024 22.0231 16.5233C22.6267 17.1442 22.9658 17.9864 22.9658 18.8645V24.824C22.9658 25.1752 23.1015 25.5121 23.343 25.7604C23.5844 26.0088 23.9119 26.1483 24.2534 26.1483C24.5949 26.1483 24.9224 26.0088 25.1638 25.7604C25.4053 25.5121 25.5409 25.1752 25.5409 24.824V18.8645C25.5409 17.2839 24.9305 15.7681 23.8439 14.6504C22.7573 13.5328 21.2836 12.9049 19.747 12.9049Z" fill="#FBF4E9"/>
</svg>
