<svg width="130" height="49" viewBox="0 0 130 49" fill="none" xmlns="http://www.w3.org/2000/svg">
<g clip-path="url(#clip0_32_1361)">
<path d="M0.0862427 37.8467V1.76123H14.339C25.1587 1.76123 33.3255 9.35816 33.3255 19.7783C33.3255 30.1984 25.1587 37.8467 14.4431 37.8467H0.0862427ZM14.235 7.97224H7.16063V31.6357H14.235C21.2574 31.6357 26.043 26.9646 26.043 19.727C26.043 12.592 21.2054 7.97224 14.235 7.97224ZM91.3533 38.4113C87.0358 38.4113 82.9261 36.7174 80.4295 33.8429L84.487 29.7878C86.2033 31.687 88.492 32.6623 91.3012 32.6623C93.4858 32.6623 94.6821 32.0463 94.6821 30.8144C94.6821 26.7593 82.042 29.3258 82.042 20.2403C82.042 15.5178 85.7353 12.438 91.7171 12.438C95.8788 12.438 99.3638 13.9266 101.548 16.7498L97.4392 20.8049C95.9309 18.957 93.9542 18.187 91.7691 18.187C89.7408 18.187 88.6483 18.803 88.6483 19.9323C88.6483 23.5767 101.236 21.3182 101.236 30.5064C101.236 35.3828 97.4392 38.4113 91.3533 38.4113ZM106.768 48.2154L112.75 35.7421L103.231 13.054H110.617L116.339 28.8125L122.321 13.054H129.76L118.576 38.0007L113.998 48.2154H106.768Z" fill="#FFFBF5"/>
<path d="M48.5705 38.3596C41.6 38.3596 36.4503 32.8159 36.4503 25.373C36.4503 17.93 41.6 12.3863 48.5705 12.3863C51.3792 12.3863 53.8243 13.3616 55.5405 14.9529V12.8996H63.3436V37.8463H55.5405V35.7931C53.8243 37.3843 51.3792 38.3596 48.5705 38.3596ZM50.183 31.276C53.5639 31.276 55.8526 28.8634 55.8526 25.373C55.8526 21.8825 53.5639 19.47 50.2351 19.47C46.9059 19.47 44.5129 21.9338 44.5129 25.373C44.5129 28.8121 46.9059 31.276 50.183 31.276ZM72.9524 9.46047C70.4557 9.46047 68.6348 7.56124 68.6348 5.14871C68.6348 2.73615 70.4557 0.836914 72.9524 0.836914C75.4491 0.836914 77.2178 2.73615 77.2178 5.14871C77.2178 7.56124 75.4491 9.46047 72.9524 9.46047ZM68.9469 37.8463V12.8996H76.9057V37.8463H68.9469Z" fill="#FFE1B1"/>
</g>
<defs>
<clipPath id="clip0_32_1361">
<rect width="130" height="48" fill="white" transform="translate(0 0.432129)"/>
</clipPath>
</defs>
</svg>
