<svg width="110" height="41" viewBox="0 0 110 41" fill="none" xmlns="http://www.w3.org/2000/svg">
<g clip-path="url(#clip0_173_901)">
<path d="M0.072998 31.6704V1.12512H12.1331C21.2882 1.12512 28.1985 7.55571 28.1985 16.376C28.1985 25.1964 21.2882 31.6704 12.2211 31.6704H0.072998ZM12.0451 6.38256H6.05902V26.413H12.0451C17.9871 26.413 22.0364 22.459 22.0364 16.3326C22.0364 10.2931 17.943 6.38256 12.0451 6.38256ZM77.299 32.1484C73.6457 32.1484 70.1683 30.7145 68.0557 28.2813L71.489 24.8488C72.9412 26.4564 74.8779 27.282 77.2549 27.282C79.1034 27.282 80.1156 26.7606 80.1156 25.7178C80.1156 22.2852 69.4202 24.4577 69.4202 16.7671C69.4202 12.7697 72.5453 10.1627 77.6068 10.1627C81.1282 10.1627 84.0771 11.4227 85.9256 13.8125L82.4486 17.245C81.1723 15.6808 79.4997 15.0291 77.6508 15.0291C75.9346 15.0291 75.0101 15.5505 75.0101 16.5064C75.0101 19.5913 85.6615 17.6795 85.6615 25.4571C85.6615 29.5848 82.4486 32.1484 77.299 32.1484ZM90.342 40.4473L95.4038 29.889L87.3491 10.6841H93.599L98.4409 24.0232L103.503 10.6841H109.797L100.333 31.8008L96.4601 40.4473H90.342Z" fill="#2F424F"/>
<path d="M41.0981 32.1049C35.2 32.1049 30.8425 27.4123 30.8425 21.1121C30.8425 14.8118 35.2 10.1192 41.0981 10.1192C43.4748 10.1192 45.5436 10.9448 46.9958 12.2918V10.5537H53.5984V31.6704H46.9958V29.9324C45.5436 31.2794 43.4748 32.1049 41.0981 32.1049ZM42.4625 26.1088C45.3233 26.1088 47.2599 24.0667 47.2599 21.1121C47.2599 18.1575 45.3233 16.1154 42.5066 16.1154C39.6896 16.1154 37.6648 18.2009 37.6648 21.1121C37.6648 24.0232 39.6896 26.1088 42.4625 26.1088ZM61.7289 7.64261C59.6163 7.64261 58.0756 6.03497 58.0756 3.99283C58.0756 1.95066 59.6163 0.343018 61.7289 0.343018C63.8415 0.343018 65.3382 1.95066 65.3382 3.99283C65.3382 6.03497 63.8415 7.64261 61.7289 7.64261ZM58.3397 31.6704V10.5537H65.0741V31.6704H58.3397Z" fill="#49DCB1"/>
</g>
<defs>
<clipPath id="clip0_173_901">
<rect width="110" height="40.6306" fill="white"/>
</clipPath>
</defs>
</svg>
