<svg width="541" height="541" viewBox="0 0 541 541" fill="none" xmlns="http://www.w3.org/2000/svg">
<g clip-path="url(#clip0_69_1450)">
<rect x="270.5" width="382.545" height="382.545" rx="8" transform="rotate(45 270.5 0)" fill="#1C5F68"/>
<circle cx="270.5" cy="271" r="111" stroke="#FBF4E9" stroke-width="4"/>
<g clip-path="url(#clip1_69_1450)">
<path d="M270.5 180C320.206 180 360.5 139.706 360.5 90C360.5 40.2944 320.206 0 270.5 0C220.794 0 180.5 40.2944 180.5 90C180.5 139.706 220.794 180 270.5 180Z" fill="#10A37F"/>
<path d="M310.159 81.6459C311.182 78.5478 311.534 75.2672 311.194 72.022C310.853 68.7768 309.827 65.6413 308.184 62.8238C305.74 58.568 302.011 55.1986 297.533 53.2009C293.055 51.2031 288.06 50.68 283.266 51.7069C280.544 48.6734 277.072 46.4107 273.2 45.1459C269.328 43.8812 265.192 43.6588 261.207 44.5013C257.222 45.3438 253.529 47.2214 250.497 49.9456C247.466 52.6699 245.204 56.1448 243.938 60.0216C240.746 60.6809 237.73 62.0132 235.091 63.9299C232.453 65.8467 230.252 68.304 228.635 71.1385C226.169 75.3896 225.115 80.3159 225.626 85.206C226.137 90.0961 228.187 94.6969 231.479 98.3442C230.447 101.44 230.088 104.722 230.425 107.968C230.761 111.215 231.786 114.352 233.431 117.17C235.876 121.43 239.608 124.801 244.09 126.799C248.572 128.797 253.571 129.318 258.368 128.287C260.534 130.725 263.193 132.674 266.168 134.004C269.144 135.334 272.368 136.014 275.626 136C280.539 136.002 285.326 134.442 289.296 131.544C293.267 128.646 296.216 124.561 297.719 119.876C300.911 119.217 303.926 117.884 306.563 115.967C309.201 114.051 311.402 111.594 313.018 108.76C315.455 104.515 316.491 99.6078 315.978 94.7384C315.464 89.8691 313.428 85.2868 310.159 81.6459ZM275.626 129.981C271.604 129.987 267.707 128.576 264.618 125.995L265.158 125.684L283.45 115.112C283.903 114.842 284.279 114.461 284.542 114.003C284.805 113.546 284.946 113.029 284.95 112.501V86.6753L292.682 91.1527C292.72 91.1719 292.754 91.2 292.779 91.2346C292.804 91.2693 292.821 91.3096 292.828 91.3521V112.754C292.817 117.32 291.002 121.696 287.778 124.924C284.555 128.153 280.185 129.971 275.626 129.981ZM238.652 114.165C236.633 110.675 235.908 106.583 236.604 102.611L237.148 102.937L255.455 113.513C255.908 113.779 256.423 113.92 256.948 113.92C257.473 113.92 257.988 113.779 258.441 113.513L280.805 100.598V109.538C280.803 109.584 280.791 109.63 280.769 109.671C280.747 109.712 280.717 109.748 280.679 109.775L262.153 120.474C258.2 122.754 253.506 123.369 249.1 122.187C244.694 121.004 240.937 118.119 238.652 114.165ZM233.829 74.2666C235.865 70.7569 239.072 68.0787 242.885 66.7032V88.4655C242.88 88.9914 243.014 89.5092 243.275 89.9655C243.536 90.4217 243.914 90.7999 244.37 91.0607L266.628 103.918L258.896 108.395C258.854 108.416 258.807 108.427 258.76 108.427C258.713 108.427 258.667 108.416 258.624 108.395L240.137 97.7155C236.19 95.4258 233.31 91.6625 232.127 87.2501C230.945 82.8378 231.557 78.1359 233.829 74.1746V74.2666ZM297.356 89.0444L275.029 76.0606L282.742 71.5985C282.784 71.5776 282.831 71.5667 282.878 71.5667C282.925 71.5667 282.971 71.5776 283.014 71.5985L301.501 82.2975C304.329 83.9303 306.635 86.3354 308.149 89.2319C309.664 92.1284 310.324 95.3966 310.052 98.6548C309.781 101.913 308.59 105.027 306.617 107.632C304.645 110.237 301.973 112.226 298.913 113.367V91.6012C298.897 91.0764 298.745 90.5647 298.472 90.1164C298.199 89.6681 297.814 89.2987 297.356 89.0444ZM305.049 77.456L304.509 77.1301L286.236 66.4656C285.78 66.1996 285.262 66.0594 284.734 66.0594C284.206 66.0594 283.688 66.1996 283.232 66.4656L260.886 79.3803V70.437C260.883 70.3921 260.891 70.3472 260.91 70.3064C260.929 70.2655 260.958 70.23 260.994 70.2031L279.481 59.5194C282.315 57.8861 285.554 57.0943 288.82 57.2365C292.087 57.3788 295.245 58.4492 297.927 60.3227C300.608 62.1961 302.702 64.7953 303.963 67.8164C305.224 70.8374 305.601 74.1556 305.049 77.3831V77.456ZM256.668 93.3071L248.937 88.845C248.898 88.8217 248.865 88.7899 248.839 88.7521C248.814 88.7144 248.798 88.6714 248.791 88.6265V67.2859C248.798 64.0126 249.734 60.8086 251.491 58.0482C253.247 55.2879 255.752 53.085 258.712 51.697C261.672 50.309 264.965 49.7932 268.207 50.2097C271.449 50.6262 274.505 51.9578 277.02 54.0492L276.476 54.3558L258.188 64.9284C257.734 65.197 257.357 65.5784 257.093 66.0358C256.83 66.4931 256.689 67.0109 256.684 67.5389L256.668 93.3071ZM260.867 84.2411L270.827 78.491L280.805 84.2411V95.7375L270.865 101.488L260.886 95.7375L260.867 84.2411Z" fill="white"/>
</g>
<g clip-path="url(#clip2_69_1450)">
<path d="M450.5 360C500.206 360 540.5 319.706 540.5 270C540.5 220.294 500.206 180 450.5 180C400.794 180 360.5 220.294 360.5 270C360.5 319.706 400.794 360 450.5 360Z" fill="#456990"/>
<path d="M496.5 240.429C496.5 242.586 495.31 244.722 492.998 246.716C490.687 248.709 487.298 250.52 483.027 252.045C478.755 253.571 473.684 254.781 468.103 255.607C462.522 256.432 456.541 256.857 450.5 256.857C438.3 256.857 426.6 255.126 417.973 252.045C409.346 248.964 404.5 244.786 404.5 240.429C404.5 238.271 405.69 236.135 408.002 234.142C410.313 232.148 413.702 230.337 417.973 228.812C422.245 227.286 427.316 226.076 432.897 225.251C438.478 224.425 444.459 224 450.5 224C456.541 224 462.522 224.425 468.103 225.251C473.684 226.076 478.755 227.286 483.027 228.812C487.298 230.337 490.687 232.148 492.998 234.142C495.31 236.135 496.5 238.271 496.5 240.429Z" stroke="#FFFBF5" stroke-width="5" stroke-linecap="round" stroke-linejoin="round"/>
<path d="M496.5 299.572C496.5 302.456 494.375 305.289 490.337 307.786C486.3 310.284 480.493 312.357 473.5 313.799C466.507 315.241 458.575 316 450.5 316C442.425 316 434.493 315.241 427.5 313.799C420.507 312.357 414.7 310.284 410.663 307.786C406.625 305.289 404.5 302.456 404.5 299.572" stroke="#FFFBF5" stroke-width="5" stroke-linecap="round" stroke-linejoin="round"/>
<path d="M496.5 279.857C496.5 282.741 494.375 285.574 490.337 288.072C486.3 290.569 480.493 292.643 473.5 294.085C466.507 295.527 458.575 296.286 450.5 296.286C442.425 296.286 434.493 295.527 427.5 294.085C420.507 292.643 414.7 290.569 410.663 288.072C406.625 285.574 404.5 282.741 404.5 279.857" stroke="#FFFBF5" stroke-width="5" stroke-linecap="round" stroke-linejoin="round"/>
<path d="M496.5 260.143C496.5 263.026 494.375 265.859 490.337 268.357C486.3 270.854 480.493 272.928 473.5 274.37C466.507 275.812 458.575 276.571 450.5 276.571C442.425 276.571 434.493 275.812 427.5 274.37C420.507 272.928 414.7 270.854 410.663 268.357C406.625 265.859 404.5 263.026 404.5 260.143" stroke="#FFFBF5" stroke-width="5" stroke-linecap="round" stroke-linejoin="round"/>
<path d="M404.5 240.428V299.571" stroke="#FFFBF5" stroke-width="5" stroke-linecap="round" stroke-linejoin="round"/>
<path d="M496.5 240.428V299.571" stroke="#FFFBF5" stroke-width="5" stroke-linecap="round" stroke-linejoin="round"/>
</g>
<path d="M270.187 541.374C319.72 541.374 359.874 501.22 359.874 451.687C359.874 402.154 319.72 362 270.187 362C220.654 362 180.5 402.154 180.5 451.687C180.5 501.22 220.654 541.374 270.187 541.374Z" fill="#FFE1B1"/>
<path d="M270.187 532.374C314.749 532.374 350.874 496.249 350.874 451.687C350.874 407.125 314.749 371 270.187 371C225.625 371 189.5 407.125 189.5 451.687C189.5 496.249 225.625 532.374 270.187 532.374Z" fill="#49DCB1"/>
<path d="M270.187 523.452C309.822 523.452 341.952 491.322 341.952 451.687C341.952 412.052 309.822 379.922 270.187 379.922C230.552 379.922 198.422 412.052 198.422 451.687C198.422 491.322 230.552 523.452 270.187 523.452Z" fill="#256872"/>
<path d="M270.187 514.452C304.851 514.452 332.952 486.351 332.952 451.687C332.952 417.023 304.851 388.922 270.187 388.922C235.523 388.922 207.422 417.023 207.422 451.687C207.422 486.351 235.523 514.452 270.187 514.452Z" fill="#456990"/>
<path d="M270.187 505.53C299.924 505.53 324.03 481.424 324.03 451.687C324.03 421.95 299.924 397.843 270.187 397.843C240.45 397.843 216.343 421.95 216.343 451.687C216.343 481.424 240.45 505.53 270.187 505.53Z" fill="#2F424F"/>
<path fill-rule="evenodd" clip-rule="evenodd" d="M299.249 436.943C303.117 439.513 305.479 443.825 305.479 448.433L305.45 448.463C305.45 451.21 304.623 453.868 303.029 456.172C304.623 458.476 305.45 461.134 305.45 463.881C305.45 468.725 302.881 473.185 298.688 475.696C296.828 482.371 290.864 486.979 283.896 486.979C277.785 486.979 272.5 483.376 270.02 478.177C267.569 483.376 262.255 486.979 256.143 486.979C249.175 486.979 243.182 482.371 241.351 475.696C237.159 473.215 234.59 468.725 234.59 463.881C234.59 461.134 235.417 458.476 237.011 456.172C235.417 453.868 234.59 451.239 234.59 448.463C234.59 443.855 236.952 439.542 240.82 436.973C240.79 436.707 240.79 436.411 240.79 436.116C240.79 430.327 244.599 425.689 249.648 425.04C250.651 419.93 255.169 416.09 260.454 416.09C264.558 416.09 268.13 418.335 270.049 421.643C271.968 418.335 275.541 416.09 279.645 416.09C284.93 416.09 289.447 419.93 290.451 425.04C295.529 425.719 299.308 430.327 299.308 436.087C299.308 436.216 299.294 436.352 299.28 436.492C299.265 436.64 299.249 436.792 299.249 436.943ZM244.097 474.396C245.425 480.067 250.386 484.025 256.173 484.025V484.055C262.993 484.055 268.573 478.502 268.573 471.649V427.196C268.573 422.706 264.941 419.073 260.454 419.073C256.261 419.073 252.718 422.381 252.393 426.576L252.275 427.934H250.917C246.4 427.934 243.743 432.099 243.743 436.116C243.743 436.589 244.067 438.509 244.067 438.509L243.152 439.011C239.698 440.96 237.572 444.564 237.572 448.463C237.572 450.914 238.428 453.277 240.022 455.256L240.761 456.172L240.022 457.087C238.428 459.066 237.572 461.429 237.572 463.881C237.572 467.869 239.786 471.502 243.359 473.422L243.949 473.746L244.097 474.396ZM302.527 463.881C302.527 461.429 301.67 459.066 300.076 457.087V457.058L299.338 456.142L300.076 455.227C301.67 453.248 302.527 450.885 302.527 448.433C302.527 444.534 300.401 440.931 296.946 438.981L296.031 438.479C296.031 438.479 296.356 436.559 296.356 436.087C296.356 432.069 293.699 427.905 289.24 427.905H287.882L287.705 426.546C287.38 422.352 283.837 419.044 279.645 419.044C275.157 419.044 271.525 422.677 271.525 427.166V471.62C271.525 478.443 277.076 484.025 283.926 484.025C289.742 484.025 294.703 480.067 296.002 474.396L296.149 473.746L296.74 473.422C300.312 471.502 302.527 467.869 302.527 463.881Z" fill="white"/>
<g clip-path="url(#clip3_69_1450)">
<path d="M90.5 360C140.206 360 180.5 319.706 180.5 270C180.5 220.294 140.206 180 90.5 180C40.7944 180 0.5 220.294 0.5 270C0.5 319.706 40.7944 360 90.5 360Z" fill="#19CC60"/>
<path d="M123.36 236.974C119.077 232.669 113.976 229.257 108.354 226.935C102.732 224.612 96.7014 223.427 90.6142 223.448C65.1089 223.448 44.3217 244.132 44.3217 269.509C44.3217 277.643 46.4705 285.545 50.4878 292.516L43.948 316.407L68.4723 309.993C75.2456 313.664 82.8598 315.617 90.6142 315.617C116.119 315.617 136.907 294.933 136.907 269.556C136.907 257.239 132.095 245.665 123.36 236.974ZM90.6142 307.808C83.7007 307.808 76.9273 305.949 70.9948 302.463L69.5934 301.626L55.019 305.438L58.8961 291.308L57.9619 289.867C54.1209 283.764 52.0814 276.71 52.076 269.509C52.076 248.408 69.3598 231.21 90.5675 231.21C100.844 231.21 110.514 235.208 117.754 242.458C121.34 246.009 124.181 250.233 126.113 254.884C128.046 259.536 129.031 264.523 129.012 269.556C129.106 290.657 111.822 307.808 90.6142 307.808ZM111.728 279.177C110.561 278.619 104.862 275.83 103.834 275.412C102.76 275.04 102.012 274.854 101.218 275.97C100.424 277.132 98.2284 279.735 97.5744 280.478C96.9204 281.268 96.2197 281.361 95.0519 280.757C93.8841 280.199 90.147 278.945 85.756 275.04C82.2993 271.973 80.0103 268.208 79.3097 267.046C78.6557 265.884 79.2162 265.28 79.8235 264.675C80.3373 264.164 80.9913 263.327 81.5519 262.677C82.1124 262.026 82.346 261.515 82.7197 260.771C83.0934 259.981 82.9065 259.33 82.6263 258.773C82.346 258.215 80.0103 252.544 79.0761 250.22C78.1418 247.989 77.1609 248.268 76.4602 248.222H74.2179C73.4238 248.222 72.2093 248.501 71.1349 249.663C70.1072 250.825 67.1176 253.613 67.1176 259.284C67.1176 264.954 71.275 270.439 71.8356 271.182C72.3962 271.973 80.0104 283.592 91.5951 288.566C94.3512 289.774 96.5 290.471 98.1817 290.983C100.938 291.866 103.46 291.726 105.469 291.447C107.711 291.122 112.336 288.659 113.27 285.963C114.251 283.267 114.251 280.99 113.924 280.478C113.597 279.967 112.896 279.735 111.728 279.177Z" fill="white"/>
</g>
</g>
<defs>
<clipPath id="clip0_69_1450">
<rect x="270.5" width="382.545" height="382.545" rx="8" transform="rotate(45 270.5 0)" fill="white"/>
</clipPath>
<clipPath id="clip1_69_1450">
<rect width="180" height="180" fill="white" transform="translate(180.5)"/>
</clipPath>
<clipPath id="clip2_69_1450">
<rect width="180" height="180" fill="white" transform="translate(360.5 180)"/>
</clipPath>
<clipPath id="clip3_69_1450">
<rect width="180" height="180" fill="white" transform="translate(0.5 180)"/>
</clipPath>
</defs>
</svg>
