<svg width="40" height="40" viewBox="0 0 40 40" fill="none" xmlns="http://www.w3.org/2000/svg">
<circle cx="20" cy="20" r="20" fill="#2F424F"/>
<circle cx="20" cy="20" r="18" fill="#456990"/>
<circle cx="20" cy="20" r="16" fill="#256872"/>
<circle cx="20" cy="20" r="14" fill="#49DCB1"/>
<circle cx="20" cy="20" r="12" fill="#FFE1B1"/>
<circle cx="20" cy="20" r="10" fill="#FBF4E9"/>
<path d="M19.1429 20.8571H14.8571C14.6143 20.8571 14.4109 20.7749 14.2469 20.6103C14.0829 20.4457 14.0006 20.2423 14 20C13.9994 19.7577 14.0817 19.5543 14.2469 19.3897C14.412 19.2251 14.6154 19.1429 14.8571 19.1429H19.1429V14.8571C19.1429 14.6143 19.2251 14.4109 19.3897 14.2469C19.5543 14.0829 19.7577 14.0006 20 14C20.2423 13.9994 20.446 14.0817 20.6111 14.2469C20.7763 14.412 20.8583 14.6154 20.8571 14.8571V19.1429H25.1429C25.3857 19.1429 25.5894 19.2251 25.754 19.3897C25.9186 19.5543 26.0006 19.7577 26 20C25.9994 20.2423 25.9171 20.446 25.7531 20.6111C25.5891 20.7763 25.3857 20.8583 25.1429 20.8571H20.8571V25.1429C20.8571 25.3857 20.7749 25.5894 20.6103 25.754C20.4457 25.9186 20.2423 26.0006 20 26C19.7577 25.9994 19.5543 25.9171 19.3897 25.7531C19.2251 25.5891 19.1429 25.3857 19.1429 25.1429V20.8571Z" fill="#2F424F"/>
</svg>
