<svg width="180" height="179" viewBox="0 0 180 179" fill="none" xmlns="http://www.w3.org/2000/svg">
<g clip-path="url(#clip0_20_297)">
<path d="M90.0459 178.061C139.068 178.061 178.808 138.321 178.808 89.2987C178.808 40.2767 139.068 0.536621 90.0459 0.536621C41.024 0.536621 1.28388 40.2767 1.28388 89.2987C1.28388 138.321 41.024 178.061 90.0459 178.061Z" fill="#FFE1B1"/>
<path d="M90.0459 169.154C134.149 169.154 169.901 133.401 169.901 89.2987C169.901 45.1961 134.149 9.44385 90.0459 9.44385C45.9433 9.44385 10.1911 45.1961 10.1911 89.2987C10.1911 133.401 45.9433 169.154 90.0459 169.154Z" fill="#49DCB1"/>
<path d="M90.0459 160.324C129.272 160.324 161.071 128.525 161.071 89.299C161.071 50.0729 129.272 18.2739 90.0459 18.2739C50.8198 18.2739 19.0208 50.0729 19.0208 89.299C19.0208 128.525 50.8198 160.324 90.0459 160.324Z" fill="#256872"/>
<path d="M90.0459 151.417C124.353 151.417 152.164 123.606 152.164 89.2991C152.164 54.9923 124.353 27.1812 90.0459 27.1812C55.7391 27.1812 27.928 54.9923 27.928 89.2991C27.928 123.606 55.7391 151.417 90.0459 151.417Z" fill="#456990"/>
<path d="M90.4101 142.587C119.84 142.587 143.698 118.729 143.698 89.2989C143.698 59.8687 119.84 36.0107 90.4101 36.0107C60.9799 36.0107 37.1219 59.8687 37.1219 89.2989C37.1219 118.729 60.9799 142.587 90.4101 142.587Z" fill="#2F424F"/>
<path d="M121.87 87.026C120.525 85.2529 118.463 84.2335 116.21 84.2335H114.987V78.8463C114.987 71.3715 108.793 65.2903 101.181 65.2903H87.2209C86.7957 65.2903 86.365 65.19 85.9867 65.0056L77.2754 60.7273C76.1323 60.1661 74.8511 59.8706 73.57 59.8706H68.0477C61.9567 59.8679 57.0033 64.7318 57.0033 70.7127V105.958C57.0033 113.433 63.1965 119.514 70.8088 119.514H105.483C111.629 119.514 116.942 115.632 118.742 109.735L122.972 93.1533C123.618 91.0332 123.215 88.8018 121.87 87.026ZM62.5255 105.958V70.7127C62.5255 67.7222 65.0022 65.2903 68.0477 65.2903H73.57C73.9952 65.2903 74.4259 65.3906 74.8042 65.575L83.5155 69.8533C84.6586 70.4145 85.9398 70.71 87.2209 70.71H101.181C105.748 70.71 109.464 74.3593 109.464 78.8436V84.2308H80.7903C76.0964 84.2308 71.905 87.1561 70.3284 91.6052L64.2816 110.958C63.1826 109.578 62.5255 107.843 62.5255 105.958ZM117.648 91.7164L113.418 108.295C112.358 111.763 109.169 114.092 105.483 114.092H70.8088C70.2345 114.092 69.674 114.035 69.1328 113.924L75.5773 93.2943C76.3476 91.1172 78.4461 89.6559 80.793 89.6559H116.213C116.881 89.6559 117.27 90.0354 117.441 90.2632C117.612 90.4909 117.872 90.9654 117.648 91.7164Z" fill="white"/>
</g>
<defs>
<clipPath id="clip0_20_297">
<rect width="178.144" height="178.144" fill="white" transform="translate(0.974022 0.227051)"/>
</clipPath>
</defs>
</svg>
