<svg width="192" height="192" viewBox="0 0 192 192" fill="none" xmlns="http://www.w3.org/2000/svg">
<g clip-path="url(#clip0_20_150)">
<path d="M95.9997 191.252C148.69 191.252 191.405 148.538 191.405 95.8468C191.405 43.156 148.69 0.44165 95.9997 0.44165C43.3089 0.44165 0.594543 43.156 0.594543 95.8468C0.594543 148.538 43.3089 191.252 95.9997 191.252Z" fill="#FFE1B1"/>
<path d="M95.9998 181.678C143.403 181.678 181.831 143.25 181.831 95.8467C181.831 48.4434 143.403 10.0154 95.9998 10.0154C48.5965 10.0154 10.1685 48.4434 10.1685 95.8467C10.1685 143.25 48.5965 181.678 95.9998 181.678Z" fill="#49DCB1"/>
<path d="M95.9999 172.188C138.162 172.188 172.341 138.009 172.341 95.8469C172.341 53.685 138.162 19.5061 95.9999 19.5061C53.8381 19.5061 19.6592 53.685 19.6592 95.8469C19.6592 138.009 53.8381 172.188 95.9999 172.188Z" fill="#256872"/>
<path d="M95.9999 162.614C132.874 162.614 162.767 132.721 162.767 95.8468C162.767 58.9724 132.874 29.0798 95.9999 29.0798C59.1255 29.0798 29.2329 58.9724 29.2329 95.8468C29.2329 132.721 59.1255 162.614 95.9999 162.614Z" fill="#456990"/>
<path d="M95.9997 153.123C127.633 153.123 153.276 127.48 153.276 95.8467C153.276 64.2138 127.633 38.5703 95.9997 38.5703C64.3669 38.5703 38.7233 64.2138 38.7233 95.8467C38.7233 127.48 64.3669 153.123 95.9997 153.123Z" fill="#2F424F"/>
<path d="M130.466 126.15L112.9 108.584C123.14 96.0133 121.308 77.4485 108.737 67.2086C96.1664 56.9688 77.6016 58.8003 67.3618 71.3712C57.1219 83.942 58.9534 102.507 71.5243 112.747C82.3469 121.571 97.9147 121.571 108.737 112.747L126.303 130.313C127.469 131.478 129.3 131.395 130.466 130.313C131.548 129.147 131.548 127.399 130.466 126.233V126.15ZM90.1724 113.496C77.1853 113.496 66.6958 103.006 66.6958 90.0193C66.6958 77.0322 77.1853 66.5426 90.1724 66.5426C103.159 66.5426 113.649 77.0322 113.649 90.0193C113.649 103.006 103.159 113.496 90.1724 113.496Z" fill="white"/>
</g>
<defs>
<clipPath id="clip0_20_150">
<rect width="191.476" height="191.476" fill="white" transform="translate(0.26181 0.108643)"/>
</clipPath>
</defs>
</svg>
