<svg width="20" height="21" viewBox="0 0 20 21" fill="none" xmlns="http://www.w3.org/2000/svg">
<path d="M2 10.6306C2 6.21228 5.58167 2.63062 10 2.63062C14.4183 2.63062 18 6.21228 18 10.6306C18 15.0489 14.4183 18.6306 10 18.6306C5.58167 18.6306 2 15.0489 2 10.6306ZM10.191 11.2119C11.1823 11.4559 11.4793 11.7793 11.4793 12.3253C11.4793 12.8926 11.0977 13.3219 10.191 13.3909V11.2119ZM9.592 9.98762C8.744 9.77528 8.42567 9.42028 8.42567 8.93762C8.42567 8.45528 8.82867 8.01528 9.59233 7.91995L9.592 9.98762ZM10.191 10.1306V7.91995C10.8697 8.00462 11.3467 8.39162 11.4157 9.05995H12.5183C12.476 7.85662 11.5163 7.06128 10.191 6.95495V6.05928H9.592V6.95495C8.256 7.05595 7.302 7.84028 7.302 9.02795C7.302 10.1039 8.02833 10.7086 9.37467 11.0213L9.592 11.0743V13.3856C8.73867 13.2956 8.33567 12.8396 8.24033 12.2193H7.143C7.17967 13.4916 8.24567 14.2496 9.592 14.3506V15.2409H10.191V14.3506C11.543 14.2549 12.6033 13.5183 12.6033 12.2193C12.6033 11.0903 11.84 10.5176 10.4457 10.1943L10.191 10.1306Z" fill="#2F424F"/>
</svg>
