<svg width="14" height="16" viewBox="0 0 14 16" fill="none" xmlns="http://www.w3.org/2000/svg">
<path d="M1.4001 13.6C1.17343 13.6 0.983567 13.5232 0.8305 13.3696C0.677434 13.216 0.600634 13.0261 0.6001 12.8C0.599567 12.5739 0.676367 12.384 0.8305 12.2304C0.984634 12.0768 1.1745 12 1.4001 12H2.2001V6.4C2.2001 5.29333 2.53343 4.31013 3.2001 3.4504C3.86677 2.59067 4.73343 2.0272 5.8001 1.76V1.2C5.8001 0.866668 5.9169 0.583468 6.1505 0.350402C6.3841 0.117335 6.6673 0.000535151 7.0001 1.81818e-06C7.3329 -0.000531515 7.61637 0.116268 7.8505 0.350402C8.08463 0.584535 8.20117 0.867735 8.2001 1.2V1.76C9.26677 2.02667 10.1334 2.59013 10.8001 3.4504C11.4668 4.31067 11.8001 5.29387 11.8001 6.4V12H12.6001C12.8268 12 13.0169 12.0768 13.1705 12.2304C13.3241 12.384 13.4006 12.5739 13.4001 12.8C13.3996 13.0261 13.3228 13.2163 13.1697 13.3704C13.0166 13.5245 12.8268 13.6011 12.6001 13.6H1.4001ZM7.0001 16C6.5601 16 6.18357 15.8435 5.8705 15.5304C5.55743 15.2173 5.40063 14.8405 5.4001 14.4H8.6001C8.6001 14.84 8.44357 15.2168 8.1305 15.5304C7.81743 15.844 7.44063 16.0005 7.0001 16Z" fill="#2F424F"/>
</svg>
