<svg width="193" height="192" viewBox="0 0 193 192" fill="none" xmlns="http://www.w3.org/2000/svg">
<g clip-path="url(#clip0_20_143)">
<path d="M96.2821 191.585C149.157 191.585 192.02 148.721 192.02 95.8468C192.02 42.9721 149.157 0.108643 96.2821 0.108643C43.4074 0.108643 0.544006 42.9721 0.544006 95.8468C0.544006 148.721 43.4074 191.585 96.2821 191.585Z" fill="#49DCB1"/>
<path d="M84.96 87.3553C99.5351 87.3553 111.35 75.5399 111.35 60.9649C111.35 46.3899 99.5351 34.5745 84.96 34.5745C70.385 34.5745 58.5696 46.3899 58.5696 60.9649C58.5696 75.5399 70.385 87.3553 84.96 87.3553Z" fill="white"/>
<path d="M98.1969 129.979C98.1969 133.559 99.1126 137.056 100.694 140.219H49.6618C47.2475 140.219 45.2495 138.221 45.2495 135.807C45.2495 113.912 62.9819 96.1797 84.8768 96.1797C94.5338 96.1797 103.358 99.6762 110.185 105.337C111.517 106.42 112.682 107.585 113.848 108.751C104.774 111.581 98.1969 119.989 98.1969 129.896V129.979Z" fill="white"/>
<path d="M124.504 136.307C124.254 138.554 122.423 140.219 120.092 140.219H119.509C113.682 137.056 109.935 131.312 109.602 130.895C109.269 130.479 106.855 127.316 106.855 123.986C106.855 120.656 108.603 119.074 109.186 118.408C109.769 117.742 110.518 117.575 110.934 117.575H112.266C112.683 117.575 113.265 117.409 113.765 118.741C114.348 120.073 115.68 123.32 115.846 123.653C116.013 123.986 116.096 124.319 115.846 124.818C115.596 125.234 115.513 125.567 115.18 125.9C114.847 126.233 114.514 126.733 114.181 127.066C113.848 127.399 113.515 127.732 113.848 128.398C114.264 129.064 115.596 131.228 117.594 133.06C120.092 135.308 122.256 136.057 122.922 136.39C123.588 136.723 124.005 136.64 124.421 136.223L124.504 136.307Z" fill="white"/>
<path d="M133.995 136.306C133.828 135.973 133.412 135.89 132.746 135.557C132.08 135.224 128.75 133.642 128.167 133.393C127.584 133.143 127.085 133.06 126.669 133.726C126.169 134.392 124.92 135.89 124.587 136.306C124.171 136.806 123.838 136.806 123.089 136.473C122.423 136.14 120.258 135.391 117.761 133.143C115.763 131.395 114.431 129.23 114.015 128.481C113.598 127.815 114.015 127.482 114.348 127.149C114.681 126.816 115.014 126.4 115.347 125.983C115.68 125.567 115.763 125.317 116.013 124.901C116.262 124.401 116.096 124.068 116.013 123.735C115.929 123.402 114.514 120.156 113.931 118.824C113.349 117.492 112.849 117.658 112.433 117.658H111.101C110.685 117.658 109.935 117.825 109.353 118.491C108.77 119.157 107.022 120.738 107.022 124.068C107.022 127.399 109.436 130.479 109.769 130.978C110.102 131.395 113.848 137.139 119.676 140.302C120.175 140.552 120.675 140.802 121.174 141.052C122.756 141.718 124.005 142.134 125.004 142.467C126.585 142.966 128.084 142.883 129.249 142.717C130.582 142.55 133.246 141.135 133.745 139.553C134.328 137.971 134.328 136.639 134.161 136.39L133.995 136.306ZM133.995 136.306C133.828 135.973 133.412 135.89 132.746 135.557C132.08 135.224 128.75 133.642 128.167 133.393C127.584 133.143 127.085 133.06 126.669 133.726C126.169 134.392 124.92 135.89 124.587 136.306C124.171 136.806 123.838 136.806 123.089 136.473C122.423 136.14 120.258 135.391 117.761 133.143C115.763 131.395 114.431 129.23 114.015 128.481C113.598 127.815 114.015 127.482 114.348 127.149C114.681 126.816 115.014 126.4 115.347 125.983C115.68 125.567 115.763 125.317 116.013 124.901C116.262 124.401 116.096 124.068 116.013 123.735C115.929 123.402 114.514 120.156 113.931 118.824C113.349 117.492 112.849 117.658 112.433 117.658H111.101C110.685 117.658 109.935 117.825 109.353 118.491C108.77 119.157 107.022 120.738 107.022 124.068C107.022 127.399 109.436 130.479 109.769 130.978C110.102 131.395 113.848 137.139 119.676 140.302C120.175 140.552 120.675 140.802 121.174 141.052C122.756 141.718 124.005 142.134 125.004 142.467C126.585 142.966 128.084 142.883 129.249 142.717C130.582 142.55 133.246 141.135 133.745 139.553C134.328 137.971 134.328 136.639 134.161 136.39L133.995 136.306ZM133.995 136.306C133.828 135.973 133.412 135.89 132.746 135.557C132.08 135.224 128.75 133.642 128.167 133.393C127.584 133.143 127.085 133.06 126.669 133.726C126.169 134.392 124.92 135.89 124.587 136.306C124.171 136.806 123.838 136.806 123.089 136.473C122.423 136.14 120.258 135.391 117.761 133.143C115.763 131.395 114.431 129.23 114.015 128.481C113.598 127.815 114.015 127.482 114.348 127.149C114.681 126.816 115.014 126.4 115.347 125.983C115.68 125.567 115.763 125.317 116.013 124.901C116.262 124.401 116.096 124.068 116.013 123.735C115.929 123.402 114.514 120.156 113.931 118.824C113.349 117.492 112.849 117.658 112.433 117.658H111.101C110.685 117.658 109.935 117.825 109.353 118.491C108.77 119.157 107.022 120.738 107.022 124.068C107.022 127.399 109.436 130.479 109.769 130.978C110.102 131.395 113.848 137.139 119.676 140.302C120.175 140.552 120.675 140.802 121.174 141.052C122.756 141.718 124.005 142.134 125.004 142.467C126.585 142.966 128.084 142.883 129.249 142.717C130.582 142.55 133.246 141.135 133.745 139.553C134.328 137.971 134.328 136.639 134.161 136.39L133.995 136.306ZM133.995 136.306C133.828 135.973 133.412 135.89 132.746 135.557C132.08 135.224 128.75 133.642 128.167 133.393C127.584 133.143 127.085 133.06 126.669 133.726C126.169 134.392 124.92 135.89 124.587 136.306C124.171 136.806 123.838 136.806 123.089 136.473C122.423 136.14 120.258 135.391 117.761 133.143C115.763 131.395 114.431 129.23 114.015 128.481C113.598 127.815 114.015 127.482 114.348 127.149C114.681 126.816 115.014 126.4 115.347 125.983C115.68 125.567 115.763 125.317 116.013 124.901C116.262 124.401 116.096 124.068 116.013 123.735C115.929 123.402 114.514 120.156 113.931 118.824C113.349 117.492 112.849 117.658 112.433 117.658H111.101C110.685 117.658 109.935 117.825 109.353 118.491C108.77 119.157 107.022 120.738 107.022 124.068C107.022 127.399 109.436 130.479 109.769 130.978C110.102 131.395 113.848 137.139 119.676 140.302C120.175 140.552 120.675 140.802 121.174 141.052C122.756 141.718 124.005 142.134 125.004 142.467C126.585 142.966 128.084 142.883 129.249 142.717C130.582 142.55 133.246 141.135 133.745 139.553C134.328 137.971 134.328 136.639 134.161 136.39L133.995 136.306ZM133.995 136.306C133.828 135.973 133.412 135.89 132.746 135.557C132.08 135.224 128.75 133.642 128.167 133.393C127.584 133.143 127.085 133.06 126.669 133.726C126.169 134.392 124.92 135.89 124.587 136.306C124.171 136.806 123.838 136.806 123.089 136.473C122.423 136.14 120.258 135.391 117.761 133.143C115.763 131.395 114.431 129.23 114.015 128.481C113.598 127.815 114.015 127.482 114.348 127.149C114.681 126.816 115.014 126.4 115.347 125.983C115.68 125.567 115.763 125.317 116.013 124.901C116.262 124.401 116.096 124.068 116.013 123.735C115.929 123.402 114.514 120.156 113.931 118.824C113.349 117.492 112.849 117.658 112.433 117.658H111.101C110.685 117.658 109.935 117.825 109.353 118.491C108.77 119.157 107.022 120.738 107.022 124.068C107.022 127.399 109.436 130.479 109.769 130.978C110.102 131.395 113.848 137.139 119.676 140.302C120.175 140.552 120.675 140.802 121.174 141.052C122.756 141.718 124.005 142.134 125.004 142.467C126.585 142.966 128.084 142.883 129.249 142.717C130.582 142.55 133.246 141.135 133.745 139.553C134.328 137.971 134.328 136.639 134.161 136.39L133.995 136.306ZM133.995 136.306C133.828 135.973 133.412 135.89 132.746 135.557C132.08 135.224 128.75 133.642 128.167 133.393C127.584 133.143 127.085 133.06 126.669 133.726C126.169 134.392 124.92 135.89 124.587 136.306C124.171 136.806 123.838 136.806 123.089 136.473C122.423 136.14 120.258 135.391 117.761 133.143C115.763 131.395 114.431 129.23 114.015 128.481C113.598 127.815 114.015 127.482 114.348 127.149C114.681 126.816 115.014 126.4 115.347 125.983C115.68 125.567 115.763 125.317 116.013 124.901C116.262 124.401 116.096 124.068 116.013 123.735C115.929 123.402 114.514 120.156 113.931 118.824C113.349 117.492 112.849 117.658 112.433 117.658H111.101C110.685 117.658 109.935 117.825 109.353 118.491C108.77 119.157 107.022 120.738 107.022 124.068C107.022 127.399 109.436 130.479 109.769 130.978C110.102 131.395 113.848 137.139 119.676 140.302C120.175 140.552 120.675 140.802 121.174 141.052C122.756 141.718 124.005 142.134 125.004 142.467C126.585 142.966 128.084 142.883 129.249 142.717C130.582 142.55 133.246 141.135 133.745 139.553C134.328 137.971 134.328 136.639 134.161 136.39L133.995 136.306ZM133.995 136.306C133.828 135.973 133.412 135.89 132.746 135.557C132.08 135.224 128.75 133.642 128.167 133.393C127.584 133.143 127.085 133.06 126.669 133.726C126.169 134.392 124.92 135.89 124.587 136.306C124.171 136.806 123.838 136.806 123.089 136.473C122.423 136.14 120.258 135.391 117.761 133.143C115.763 131.395 114.431 129.23 114.015 128.481C113.598 127.815 114.015 127.482 114.348 127.149C114.681 126.816 115.014 126.4 115.347 125.983C115.68 125.567 115.763 125.317 116.013 124.901C116.262 124.401 116.096 124.068 116.013 123.735C115.929 123.402 114.514 120.156 113.931 118.824C113.349 117.492 112.849 117.658 112.433 117.658H111.101C110.685 117.658 109.935 117.825 109.353 118.491C108.77 119.157 107.022 120.738 107.022 124.068C107.022 127.399 109.436 130.479 109.769 130.978C110.102 131.395 113.848 137.139 119.676 140.302C120.175 140.552 120.675 140.802 121.174 141.052C122.756 141.718 124.005 142.134 125.004 142.467C126.585 142.966 128.084 142.883 129.249 142.717C130.582 142.55 133.246 141.135 133.745 139.553C134.328 137.971 134.328 136.639 134.161 136.39L133.995 136.306ZM133.995 136.306C133.828 135.973 133.412 135.89 132.746 135.557C132.08 135.224 128.75 133.642 128.167 133.393C127.584 133.143 127.085 133.06 126.669 133.726C126.169 134.392 124.92 135.89 124.587 136.306C124.171 136.806 123.838 136.806 123.089 136.473C122.423 136.14 120.258 135.391 117.761 133.143C115.763 131.395 114.431 129.23 114.015 128.481C113.598 127.815 114.015 127.482 114.348 127.149C114.681 126.816 115.014 126.4 115.347 125.983C115.68 125.567 115.763 125.317 116.013 124.901C116.262 124.401 116.096 124.068 116.013 123.735C115.929 123.402 114.514 120.156 113.931 118.824C113.349 117.492 112.849 117.658 112.433 117.658H111.101C110.685 117.658 109.935 117.825 109.353 118.491C108.77 119.157 107.022 120.738 107.022 124.068C107.022 127.399 109.436 130.479 109.769 130.978C110.102 131.395 113.848 137.139 119.676 140.302C120.175 140.552 120.675 140.802 121.174 141.052C122.756 141.718 124.005 142.134 125.004 142.467C126.585 142.966 128.084 142.883 129.249 142.717C130.582 142.55 133.246 141.135 133.745 139.553C134.328 137.971 134.328 136.639 134.161 136.39L133.995 136.306ZM139.406 111.165C136.909 108.667 133.995 106.669 130.748 105.337C127.501 104.005 124.005 103.339 120.508 103.339C116.845 103.339 113.432 104.088 110.268 105.337C100.611 109.333 93.7848 118.907 93.7848 129.896C93.7848 140.885 94.4508 136.972 95.866 140.136C96.2823 141.135 96.7818 142.217 97.3645 143.133L93.6183 156.952L107.771 153.206C111.684 155.287 116.096 156.453 120.591 156.453C135.327 156.453 147.315 144.465 147.315 129.813C147.315 115.161 144.568 115.993 139.489 110.998L139.406 111.165ZM120.508 152.124C116.512 152.124 112.599 151.042 109.186 149.044L108.354 148.544L99.9453 150.709L102.193 142.55L101.61 141.718C101.277 141.218 101.028 140.719 100.778 140.219C99.1128 137.056 98.2803 133.559 98.2803 129.979C98.2803 120.072 104.857 111.664 113.931 108.834C116.013 108.168 118.177 107.835 120.508 107.835C126.419 107.835 131.997 110.166 136.243 114.328C138.324 116.409 139.989 118.824 141.071 121.488C142.153 124.152 142.736 127.066 142.736 129.979C142.736 142.134 132.829 152.041 120.508 152.041V152.124ZM132.746 135.557C132.08 135.224 128.75 133.642 128.167 133.393C127.584 133.143 127.085 133.06 126.669 133.726C126.169 134.392 124.92 135.89 124.587 136.306C124.171 136.806 123.838 136.806 123.089 136.473C122.423 136.14 120.258 135.391 117.761 133.143C115.763 131.395 114.431 129.23 114.015 128.481C113.598 127.815 114.015 127.482 114.348 127.149C114.681 126.816 115.014 126.4 115.347 125.983C115.68 125.567 115.763 125.317 116.013 124.901C116.262 124.401 116.096 124.068 116.013 123.735C115.929 123.402 114.514 120.156 113.931 118.824C113.349 117.492 112.849 117.658 112.433 117.658H111.101C110.685 117.658 109.935 117.825 109.353 118.491C108.77 119.157 107.022 120.738 107.022 124.068C107.022 127.399 109.436 130.479 109.769 130.978C110.102 131.395 113.848 137.139 119.676 140.302C120.175 140.552 120.675 140.802 121.174 141.052C122.756 141.718 124.005 142.134 125.004 142.467C126.585 142.966 128.084 142.883 129.249 142.717C130.582 142.55 133.246 141.135 133.745 139.553C134.328 137.971 134.328 136.639 134.161 136.39C133.995 136.057 133.579 135.973 132.913 135.64L132.746 135.557ZM133.995 136.306C133.828 135.973 133.412 135.89 132.746 135.557C132.08 135.224 128.75 133.642 128.167 133.393C127.584 133.143 127.085 133.06 126.669 133.726C126.169 134.392 124.92 135.89 124.587 136.306C124.171 136.806 123.838 136.806 123.089 136.473C122.423 136.14 120.258 135.391 117.761 133.143C115.763 131.395 114.431 129.23 114.015 128.481C113.598 127.815 114.015 127.482 114.348 127.149C114.681 126.816 115.014 126.4 115.347 125.983C115.68 125.567 115.763 125.317 116.013 124.901C116.262 124.401 116.096 124.068 116.013 123.735C115.929 123.402 114.514 120.156 113.931 118.824C113.349 117.492 112.849 117.658 112.433 117.658H111.101C110.685 117.658 109.935 117.825 109.353 118.491C108.77 119.157 107.022 120.738 107.022 124.068C107.022 127.399 109.436 130.479 109.769 130.978C110.102 131.395 113.848 137.139 119.676 140.302C120.175 140.552 120.675 140.802 121.174 141.052C122.756 141.718 124.005 142.134 125.004 142.467C126.585 142.966 128.084 142.883 129.249 142.717C130.582 142.55 133.246 141.135 133.745 139.553C134.328 137.971 134.328 136.639 134.161 136.39L133.995 136.306ZM133.995 136.306C133.828 135.973 133.412 135.89 132.746 135.557C132.08 135.224 128.75 133.642 128.167 133.393C127.584 133.143 127.085 133.06 126.669 133.726C126.169 134.392 124.92 135.89 124.587 136.306C124.171 136.806 123.838 136.806 123.089 136.473C122.423 136.14 120.258 135.391 117.761 133.143C115.763 131.395 114.431 129.23 114.015 128.481C113.598 127.815 114.015 127.482 114.348 127.149C114.681 126.816 115.014 126.4 115.347 125.983C115.68 125.567 115.763 125.317 116.013 124.901C116.262 124.401 116.096 124.068 116.013 123.735C115.929 123.402 114.514 120.156 113.931 118.824C113.349 117.492 112.849 117.658 112.433 117.658H111.101C110.685 117.658 109.935 117.825 109.353 118.491C108.77 119.157 107.022 120.738 107.022 124.068C107.022 127.399 109.436 130.479 109.769 130.978C110.102 131.395 113.848 137.139 119.676 140.302C120.175 140.552 120.675 140.802 121.174 141.052C122.756 141.718 124.005 142.134 125.004 142.467C126.585 142.966 128.084 142.883 129.249 142.717C130.582 142.55 133.246 141.135 133.745 139.553C134.328 137.971 134.328 136.639 134.161 136.39L133.995 136.306ZM133.995 136.306C133.828 135.973 133.412 135.89 132.746 135.557C132.08 135.224 128.75 133.642 128.167 133.393C127.584 133.143 127.085 133.06 126.669 133.726C126.169 134.392 124.92 135.89 124.587 136.306C124.171 136.806 123.838 136.806 123.089 136.473C122.423 136.14 120.258 135.391 117.761 133.143C115.763 131.395 114.431 129.23 114.015 128.481C113.598 127.815 114.015 127.482 114.348 127.149C114.681 126.816 115.014 126.4 115.347 125.983C115.68 125.567 115.763 125.317 116.013 124.901C116.262 124.401 116.096 124.068 116.013 123.735C115.929 123.402 114.514 120.156 113.931 118.824C113.349 117.492 112.849 117.658 112.433 117.658H111.101C110.685 117.658 109.935 117.825 109.353 118.491C108.77 119.157 107.022 120.738 107.022 124.068C107.022 127.399 109.436 130.479 109.769 130.978C110.102 131.395 113.848 137.139 119.676 140.302C120.175 140.552 120.675 140.802 121.174 141.052C122.756 141.718 124.005 142.134 125.004 142.467C126.585 142.966 128.084 142.883 129.249 142.717C130.582 142.55 133.246 141.135 133.745 139.553C134.328 137.971 134.328 136.639 134.161 136.39L133.995 136.306ZM133.995 136.306C133.828 135.973 133.412 135.89 132.746 135.557C132.08 135.224 128.75 133.642 128.167 133.393C127.584 133.143 127.085 133.06 126.669 133.726C126.169 134.392 124.92 135.89 124.587 136.306C124.171 136.806 123.838 136.806 123.089 136.473C122.423 136.14 120.258 135.391 117.761 133.143C115.763 131.395 114.431 129.23 114.015 128.481C113.598 127.815 114.015 127.482 114.348 127.149C114.681 126.816 115.014 126.4 115.347 125.983C115.68 125.567 115.763 125.317 116.013 124.901C116.262 124.401 116.096 124.068 116.013 123.735C115.929 123.402 114.514 120.156 113.931 118.824C113.349 117.492 112.849 117.658 112.433 117.658H111.101C110.685 117.658 109.935 117.825 109.353 118.491C108.77 119.157 107.022 120.738 107.022 124.068C107.022 127.399 109.436 130.479 109.769 130.978C110.102 131.395 113.848 137.139 119.676 140.302C120.175 140.552 120.675 140.802 121.174 141.052C122.756 141.718 124.005 142.134 125.004 142.467C126.585 142.966 128.084 142.883 129.249 142.717C130.582 142.55 133.246 141.135 133.745 139.553C134.328 137.971 134.328 136.639 134.161 136.39L133.995 136.306ZM133.995 136.306C133.828 135.973 133.412 135.89 132.746 135.557C132.08 135.224 128.75 133.642 128.167 133.393C127.584 133.143 127.085 133.06 126.669 133.726C126.169 134.392 124.92 135.89 124.587 136.306C124.171 136.806 123.838 136.806 123.089 136.473C122.423 136.14 120.258 135.391 117.761 133.143C115.763 131.395 114.431 129.23 114.015 128.481C113.598 127.815 114.015 127.482 114.348 127.149C114.681 126.816 115.014 126.4 115.347 125.983C115.68 125.567 115.763 125.317 116.013 124.901C116.262 124.401 116.096 124.068 116.013 123.735C115.929 123.402 114.514 120.156 113.931 118.824C113.349 117.492 112.849 117.658 112.433 117.658H111.101C110.685 117.658 109.935 117.825 109.353 118.491C108.77 119.157 107.022 120.738 107.022 124.068C107.022 127.399 109.436 130.479 109.769 130.978C110.102 131.395 113.848 137.139 119.676 140.302C120.175 140.552 120.675 140.802 121.174 141.052C122.756 141.718 124.005 142.134 125.004 142.467C126.585 142.966 128.084 142.883 129.249 142.717C130.582 142.55 133.246 141.135 133.745 139.553C134.328 137.971 134.328 136.639 134.161 136.39L133.995 136.306ZM133.995 136.306C133.828 135.973 133.412 135.89 132.746 135.557C132.08 135.224 128.75 133.642 128.167 133.393C127.584 133.143 127.085 133.06 126.669 133.726C126.169 134.392 124.92 135.89 124.587 136.306C124.171 136.806 123.838 136.806 123.089 136.473C122.423 136.14 120.258 135.391 117.761 133.143C115.763 131.395 114.431 129.23 114.015 128.481C113.598 127.815 114.015 127.482 114.348 127.149C114.681 126.816 115.014 126.4 115.347 125.983C115.68 125.567 115.763 125.317 116.013 124.901C116.262 124.401 116.096 124.068 116.013 123.735C115.929 123.402 114.514 120.156 113.931 118.824C113.349 117.492 112.849 117.658 112.433 117.658H111.101C110.685 117.658 109.935 117.825 109.353 118.491C108.77 119.157 107.022 120.738 107.022 124.068C107.022 127.399 109.436 130.479 109.769 130.978C110.102 131.395 113.848 137.139 119.676 140.302C120.175 140.552 120.675 140.802 121.174 141.052C122.756 141.718 124.005 142.134 125.004 142.467C126.585 142.966 128.084 142.883 129.249 142.717C130.582 142.55 133.246 141.135 133.745 139.553C134.328 137.971 134.328 136.639 134.161 136.39L133.995 136.306Z" fill="white"/>
<path d="M132.746 135.557C133.412 135.89 133.828 135.973 133.995 136.306L134.161 136.39M132.746 135.557C132.08 135.224 128.75 133.642 128.167 133.393C127.584 133.143 127.085 133.06 126.669 133.726C126.169 134.392 124.92 135.89 124.587 136.306C124.171 136.806 123.838 136.806 123.089 136.473C122.423 136.14 120.258 135.391 117.761 133.143C115.763 131.395 114.431 129.23 114.015 128.481C113.598 127.815 114.015 127.482 114.348 127.149C114.681 126.816 115.014 126.4 115.347 125.983C115.68 125.567 115.763 125.317 116.013 124.901C116.262 124.401 116.096 124.068 116.013 123.735C115.929 123.402 114.514 120.156 113.931 118.824C113.349 117.492 112.849 117.658 112.433 117.658H111.101C110.685 117.658 109.935 117.825 109.353 118.491C108.77 119.157 107.022 120.738 107.022 124.068C107.022 127.399 109.436 130.479 109.769 130.978C110.102 131.395 113.848 137.139 119.676 140.302C120.175 140.552 120.675 140.802 121.174 141.052C122.756 141.718 124.005 142.134 125.004 142.467C126.585 142.966 128.084 142.883 129.249 142.717C130.582 142.55 133.246 141.135 133.745 139.553C134.328 137.971 134.328 136.639 134.161 136.39M132.746 135.557L132.913 135.64C133.579 135.973 133.995 136.057 134.161 136.39M139.406 111.165C136.909 108.667 133.995 106.669 130.748 105.337C127.501 104.005 124.005 103.339 120.508 103.339C116.845 103.339 113.432 104.088 110.268 105.337C100.611 109.333 93.7848 118.907 93.7848 129.896C93.7848 140.885 94.4508 136.972 95.866 140.136C96.2823 141.135 96.7818 142.217 97.3645 143.133L93.6183 156.952L107.771 153.206C111.684 155.287 116.096 156.453 120.591 156.453C135.327 156.453 147.315 144.465 147.315 129.813C147.315 115.161 144.568 115.993 139.489 110.998L139.406 111.165ZM120.508 152.124C116.512 152.124 112.599 151.042 109.186 149.044L108.354 148.544L99.9453 150.709L102.193 142.55L101.61 141.718C101.277 141.218 101.028 140.719 100.778 140.219C99.1128 137.056 98.2803 133.559 98.2803 129.979C98.2803 120.072 104.857 111.664 113.931 108.834C116.013 108.168 118.177 107.835 120.508 107.835C126.419 107.835 131.997 110.166 136.243 114.328C138.324 116.409 139.989 118.824 141.071 121.488C142.153 124.152 142.736 127.066 142.736 129.979C142.736 142.134 132.829 152.041 120.508 152.041V152.124Z" stroke="#49DCB1" stroke-width="0.832506" stroke-miterlimit="10"/>
</g>
<defs>
<clipPath id="clip0_20_143">
<rect width="191.476" height="191.476" fill="white" transform="translate(0.544006 0.108643)"/>
</clipPath>
</defs>
</svg>
