<svg width="16" height="16" viewBox="0 0 16 16" fill="none" xmlns="http://www.w3.org/2000/svg">
<mask id="mask0_398_5" style="mask-type:luminance" maskUnits="userSpaceOnUse" x="0" y="0" width="16" height="16">
<path d="M0 0H16V16H0V0Z" fill="white"/>
</mask>
<g mask="url(#mask0_398_5)">
<path d="M9.50737 0.117901L9.02737 0.0505323C7.58479 -0.157756 6.11271 0.0483052 4.78277 0.644693C3.45282 1.24108 2.3198 2.20322 1.51579 3.41895C0.660342 4.58104 0.150388 5.96105 0.0446141 7.40016C-0.0611594 8.83928 0.241546 10.279 0.917895 11.5537C0.987113 11.6814 1.03021 11.8217 1.04467 11.9663C1.05912 12.1109 1.04466 12.2569 1.00211 12.3958C0.656842 13.5832 0.336842 14.779 0 16.0337L0.421053 15.9074C1.55789 15.6042 2.69474 15.3011 3.83158 15.0232C4.07153 14.9733 4.32094 14.9968 4.54737 15.0905C5.56732 15.5883 6.68196 15.8622 7.81646 15.8937C8.95097 15.9253 10.0791 15.7138 11.1251 15.2735C12.1712 14.8331 13.1109 14.1741 13.8813 13.3407C14.6518 12.5073 15.235 11.5188 15.5919 10.4414C15.9488 9.36402 16.0711 8.22278 15.9506 7.09424C15.8302 5.96571 15.4697 4.876 14.8934 3.89824C14.3172 2.92049 13.5384 2.07731 12.6094 1.42529C11.6805 0.773273 10.6228 0.327505 9.50737 0.117901ZM11.6295 11.1663C11.3234 11.4403 10.9502 11.6283 10.5478 11.7112C10.1455 11.794 9.72836 11.7687 9.33895 11.6379C7.57437 11.141 6.04347 10.0339 5.01895 8.51369C4.62761 7.97603 4.31301 7.38651 4.08421 6.76211C3.9603 6.39982 3.93795 6.01051 4.0196 5.63641C4.10125 5.26232 4.28377 4.91773 4.54737 4.64001C4.67569 4.47623 4.85037 4.3549 5.04864 4.29181C5.24691 4.22872 5.45958 4.22681 5.65895 4.28632C5.82737 4.32843 5.94526 4.57264 6.09684 4.7579C6.21979 5.10569 6.36379 5.4459 6.52632 5.77685C6.64962 5.9457 6.70112 6.15647 6.66956 6.36315C6.63801 6.56984 6.52597 6.75564 6.3579 6.88001C5.97895 7.21685 6.0379 7.49474 6.30737 7.87369C6.90311 8.73193 7.72514 9.40821 8.68211 9.82737C8.95158 9.94527 9.15368 9.97053 9.33053 9.69264C9.40632 9.58316 9.50737 9.49053 9.59158 9.38948C10.08 8.77474 9.92842 8.78316 10.7032 9.12001C10.9499 9.22358 11.1891 9.34485 11.4189 9.48211C11.6463 9.61685 11.9916 9.76001 12.0421 9.96211C12.0907 10.1814 12.0779 10.4098 12.0051 10.6222C11.9323 10.8347 11.8023 11.023 11.6295 11.1663Z" fill="#25D366"/>
</g>
</svg>
