<svg width="34" height="34" viewBox="0 0 34 34" fill="none" xmlns="http://www.w3.org/2000/svg">
<path d="M29.1751 5.14109C27.6498 3.60805 25.833 2.39255 23.8306 1.56548C21.8282 0.738402 19.6804 0.316314 17.5123 0.323829C8.42828 0.323829 1.02464 7.69043 1.02464 16.729C1.02464 19.626 1.78996 22.4402 3.22078 24.9233L0.891541 33.4322L9.62618 31.1477C12.0386 32.4555 14.7505 33.1507 17.5123 33.1507C26.5963 33.1507 34 25.7841 34 16.7456C34 12.3587 32.2863 8.23672 29.1751 5.14109ZM17.5123 30.3696C15.05 30.3696 12.6375 29.7075 10.5246 28.4659L10.0255 28.1679L4.8346 29.5254L6.21551 24.4929L5.88276 23.9797C4.51474 21.8061 3.78835 19.2936 3.78645 16.729C3.78645 9.21342 9.94229 3.08838 17.4957 3.08838C21.1559 3.08838 24.5998 4.51203 27.1786 7.09448C28.4555 8.35916 29.4674 9.86344 30.1557 11.5201C30.844 13.1768 31.195 14.9529 31.1882 16.7456C31.2215 24.2612 25.0657 30.3696 17.5123 30.3696ZM25.0324 20.1723C24.6165 19.9736 22.5867 18.9804 22.2207 18.8314C21.838 18.699 21.5718 18.6327 21.289 19.03C21.0062 19.4439 20.2242 20.3709 19.9913 20.6358C19.7584 20.9172 19.5088 20.9503 19.0929 20.7351C18.6769 20.5365 17.3459 20.0895 15.782 18.699C14.5508 17.6064 13.7356 16.2655 13.4861 15.8516C13.2531 15.4378 13.4528 15.2226 13.6691 15.0074C13.8521 14.8253 14.085 14.5273 14.2846 14.2955C14.4843 14.0638 14.5675 13.8817 14.7006 13.6168C14.8337 13.3354 14.7671 13.1036 14.6673 12.905C14.5675 12.7063 13.7356 10.6867 13.4029 9.85903C13.0701 9.06443 12.7207 9.16375 12.4712 9.1472H11.6726C11.3897 9.1472 10.9572 9.24652 10.5745 9.66038C10.2085 10.0742 9.14369 11.0675 9.14369 13.0871C9.14369 15.1067 10.6244 17.0601 10.8241 17.325C11.0237 17.6064 13.7356 21.7449 17.8617 23.5162C18.8433 23.9466 19.6086 24.1949 20.2076 24.377C21.1892 24.6916 22.0876 24.6419 22.803 24.5426C23.6016 24.4267 25.2487 23.5493 25.5814 22.5892C25.9308 21.629 25.9308 20.8179 25.8144 20.6358C25.6979 20.4537 25.4483 20.3709 25.0324 20.1723Z" fill="#FBF4E9"/>
</svg>
