<svg width="20" height="21" viewBox="0 0 20 21" fill="none" xmlns="http://www.w3.org/2000/svg">
<path d="M7.81095 18.5908L7.49254 16.0435C7.32007 15.9772 7.15768 15.8976 7.00537 15.8047C6.85307 15.7119 6.70368 15.6124 6.55721 15.5062L4.18905 16.5013L2 12.7202L4.04975 11.1679C4.03648 11.0751 4.02985 10.9856 4.02985 10.8997V10.3624C4.02985 10.2759 4.03648 10.1862 4.04975 10.0933L2 8.54106L4.18905 4.75997L6.55721 5.75499C6.70315 5.64886 6.85572 5.54935 7.01493 5.45648C7.17413 5.36361 7.33333 5.28401 7.49254 5.21768L7.81095 2.67041H12.1891L12.5075 5.21768C12.6799 5.28401 12.8426 5.36361 12.9954 5.45648C13.1483 5.54935 13.2974 5.64886 13.4428 5.75499L15.8109 4.75997L18 8.54106L15.9502 10.0933C15.9635 10.1862 15.9701 10.2759 15.9701 10.3624V10.8989C15.9701 10.9854 15.9569 11.0751 15.9303 11.1679L17.9801 12.7202L15.791 16.5013L13.4428 15.5062C13.2969 15.6124 13.1443 15.7119 12.9851 15.8047C12.8259 15.8976 12.6667 15.9772 12.5075 16.0435L12.1891 18.5908H7.81095ZM10.0398 13.4167C10.8093 13.4167 11.466 13.1447 12.01 12.6008C12.5539 12.0568 12.8259 11.4001 12.8259 10.6306C12.8259 9.86113 12.5539 9.20441 12.01 8.66046C11.466 8.11652 10.8093 7.84454 10.0398 7.84454C9.25705 7.84454 8.59688 8.11652 8.0593 8.66046C7.52173 9.20441 7.2532 9.86113 7.25373 10.6306C7.25426 11.4001 7.52305 12.0568 8.0601 12.6008C8.59715 13.1447 9.25705 13.4167 10.0398 13.4167Z" fill="#2F424F"/>
</svg>
