<svg width="20" height="21" viewBox="0 0 20 21" fill="none" xmlns="http://www.w3.org/2000/svg">
<path fill-rule="evenodd" clip-rule="evenodd" d="M9.99601 2.63346C11.1916 2.63244 12.3723 2.89952 13.451 3.41504C14.5298 3.93057 15.4793 4.68142 16.2295 5.61235C16.9798 6.54328 17.5118 7.63058 17.7863 8.79426C18.0609 9.95793 18.071 11.1684 17.816 12.3365C17.5609 13.5046 17.0472 14.6006 16.3126 15.544C15.5781 16.4873 14.6413 17.254 13.5713 17.7875C12.5013 18.321 11.3253 18.6078 10.1299 18.6268C8.93439 18.6458 7.74987 18.3965 6.66347 17.8972L2.67872 18.6186C2.57847 18.6367 2.47521 18.6279 2.37946 18.5932C2.28371 18.5584 2.19889 18.4988 2.13365 18.4206C2.06841 18.3424 2.02508 18.2482 2.00808 18.1478C1.99108 18.0473 2.00101 17.9442 2.03687 17.8488L3.17883 14.8067C2.43677 13.5948 2.03104 12.207 2.00339 10.7862C1.97574 9.36545 2.32717 7.96297 3.02151 6.7231C3.71585 5.48324 4.72803 4.45078 5.95388 3.73198C7.17972 3.01318 8.57496 2.634 9.99601 2.63346ZM7.40557 8.68665C7.63479 8.68665 7.85461 8.59559 8.01669 8.43351C8.17877 8.27143 8.26982 8.05161 8.26982 7.8224C8.26982 7.59319 8.17877 7.37336 8.01669 7.21128C7.85461 7.0492 7.63479 6.95815 7.40557 6.95815C7.17636 6.95815 6.95653 7.0492 6.79446 7.21128C6.63238 7.37336 6.54133 7.59319 6.54133 7.8224C6.54133 8.05161 6.63238 8.27143 6.79446 8.43351C6.95653 8.59559 7.17636 8.68665 7.40557 8.68665ZM13.4196 7.8224C13.4196 8.05161 13.3285 8.27143 13.1665 8.43351C13.0044 8.59559 12.7845 8.68665 12.5553 8.68665C12.3261 8.68665 12.1063 8.59559 11.9442 8.43351C11.7821 8.27143 11.6911 8.05161 11.6911 7.8224C11.6911 7.59319 11.7821 7.37336 11.9442 7.21128C12.1063 7.0492 12.3261 6.95815 12.5553 6.95815C12.7845 6.95815 13.0044 7.0492 13.1665 7.21128C13.3285 7.37336 13.4196 7.59319 13.4196 7.8224ZM14.0315 11.2068C14.0315 12.2765 13.6065 13.3023 12.8502 14.0587C12.0938 14.815 11.068 15.2399 9.99831 15.2399C8.92866 15.2399 7.90281 14.815 7.14644 14.0587C6.39008 13.3023 5.96516 12.2765 5.96516 11.2068H14.0315Z" fill="#2F424F"/>
</svg>
