<svg width="20" height="21" viewBox="0 0 20 21" fill="none" xmlns="http://www.w3.org/2000/svg">
<path d="M17.0667 18.6306C15.2148 18.6306 13.3852 18.2271 11.5778 17.4199C9.77037 16.6128 8.12593 15.4682 6.64444 13.9862C5.16296 12.5041 4.01867 10.8597 3.21156 9.05284C2.40444 7.24602 2.00059 5.41639 2 3.56395C2 3.29728 2.08889 3.07506 2.26667 2.89728C2.44444 2.7195 2.66667 2.63062 2.93333 2.63062H6.53333C6.74074 2.63062 6.92593 2.70113 7.08889 2.84217C7.25185 2.98321 7.34815 3.14973 7.37778 3.34173L7.95556 6.45284C7.98519 6.68987 7.97778 6.88987 7.93333 7.05284C7.88889 7.2158 7.80741 7.35654 7.68889 7.47506L5.53333 9.65284C5.82963 10.201 6.18133 10.7305 6.58844 11.2413C6.99556 11.7521 7.44385 12.2448 7.93333 12.7195C8.39259 13.1788 8.87407 13.6048 9.37778 13.9977C9.88148 14.3906 10.4148 14.7497 10.9778 15.0751L13.0667 12.9862C13.2 12.8528 13.3742 12.753 13.5893 12.6866C13.8044 12.6202 14.0154 12.6016 14.2222 12.6306L17.2889 13.2528C17.4963 13.3121 17.6667 13.4197 17.8 13.5755C17.9333 13.7314 18 13.9053 18 14.0973V17.6973C18 17.9639 17.9111 18.1862 17.7333 18.3639C17.5556 18.5417 17.3333 18.6306 17.0667 18.6306Z" fill="#2F424F"/>
</svg>
