<svg width="20" height="21" viewBox="0 0 20 21" fill="none" xmlns="http://www.w3.org/2000/svg">
<path d="M10.0002 13.1306L12.5002 10.6306M12.5002 10.6306L10.0002 8.13063M12.5002 10.6306H3.3335M3.3335 6.67063V6.63063C3.3335 5.69729 3.3335 5.23063 3.51516 4.87396C3.67516 4.55979 3.92933 4.30563 4.2435 4.14563C4.60016 3.96396 5.06683 3.96396 6.00016 3.96396H14.0002C14.9335 3.96396 15.4002 3.96396 15.756 4.14563C16.0702 4.30563 16.3252 4.55979 16.4852 4.87396C16.6668 5.22979 16.6668 5.69646 16.6668 6.62813V14.634C16.6668 15.5656 16.6668 16.0315 16.4852 16.3873C16.3251 16.7009 16.0698 16.9559 15.756 17.1156C15.4002 17.2973 14.9343 17.2973 14.0027 17.2973H5.99766C5.066 17.2973 4.59933 17.2973 4.2435 17.1156C3.92991 16.9558 3.67495 16.7009 3.51516 16.3873C3.3335 16.0306 3.3335 15.564 3.3335 14.6306V14.589" stroke="#2F424F" stroke-width="1.5" stroke-linecap="round" stroke-linejoin="round"/>
</svg>
